<svg width="64" height="64" viewBox="0 0 64 64" fill="none" xmlns="http://www.w3.org/2000/svg">
<g clip-path="url(#clip0_3176_4298)">
<path d="M51.9385 55.7419L49.5488 48.5719C48.7137 46.0686 46.5831 44.2209 43.9859 43.7481L37.0874 42.4929V41.9582C38.2879 41.2614 39.3325 40.3293 40.1645 39.2258H42.2486C43.956 39.2258 45.3454 37.8364 45.3454 36.129V23.7419C45.3454 16.3427 39.3253 10.3226 31.9261 10.3226C24.5268 10.3226 18.5067 16.3427 18.5067 23.7419V30.9677C18.5067 32.9579 19.9219 34.623 21.7986 35.0111C22.3777 37.9778 24.2316 40.4883 26.7648 41.9582V42.4929L19.8652 43.7481C17.269 44.2209 15.1374 46.0686 14.3034 48.5719L13.8905 49.8116L10.3746 46.2957C9.972 45.8932 9.972 45.2377 10.3746 44.8351L14.452 40.7587L6.79884 33.1055L2.19084 37.7136C0.826197 39.0782 0.0747134 40.8929 0.0747134 42.8232C0.0747134 44.7536 0.826197 46.5672 2.19084 47.9319L16.1418 61.8828C17.5065 63.2475 19.3212 64 21.2515 64C23.1818 64 24.9955 63.2475 26.3281 61.9138L31.3563 57.3068L29.7883 55.7419H51.9385ZM43.2809 36.129C43.2809 36.6988 42.8174 37.1613 42.2486 37.1613H41.3805C41.6799 36.479 41.907 35.7595 42.0536 35.0111C42.4954 34.9192 42.9021 34.7437 43.2809 34.5228V36.129ZM42.2486 32.7453V29.1902C42.8628 29.5484 43.2809 30.207 43.2809 30.9677C43.2809 31.7285 42.8628 32.3871 42.2486 32.7453ZM21.6035 32.7453C20.9893 32.3871 20.5712 31.7285 20.5712 30.9677C20.5712 30.207 20.9893 29.5484 21.6035 29.1902V32.7453ZM21.6035 25.8065V26.9853C21.236 27.0813 20.8912 27.2258 20.5712 27.4126V23.7419C20.5712 17.4813 25.6654 12.3871 31.9261 12.3871C38.1867 12.3871 43.2809 17.4813 43.2809 23.7419V27.4126C42.9609 27.2258 42.6161 27.0803 42.2486 26.9853V25.8065H41.2164C38.164 25.8065 35.2943 24.6173 33.1348 22.4588L31.9261 21.2501L30.7173 22.4588C28.5578 24.6173 25.6881 25.8065 22.6357 25.8065H21.6035ZM23.668 33.0323V27.8317C26.7679 27.5985 29.6582 26.3195 31.9261 24.1631C34.1939 26.3195 37.0843 27.5995 40.1841 27.8317V33.0323C40.1841 34.5373 39.7733 35.9453 39.0672 37.1613H31.9261V39.2258H37.3702C35.9147 40.5068 34.0123 41.2903 31.9261 41.2903C27.3728 41.2903 23.668 37.5856 23.668 33.0323ZM35.0228 42.879V42.9275L31.9261 46.0243L28.8293 42.9275V42.879C29.8079 43.1866 30.8474 43.3548 31.9261 43.3548C33.0048 43.3548 34.0443 43.1866 35.0228 42.879ZM16.2605 49.2243C16.8561 47.4364 18.3787 46.1161 20.2337 45.7775L27.4492 44.4666L31.9261 48.9435L36.4019 44.4676L43.6164 45.7786C45.4714 46.1172 46.9939 47.4364 47.5896 49.2253L49.075 53.6774H27.7237L23.7031 49.6568L19.2355 53.6981C18.8463 54.0893 18.1661 54.0893 17.7759 53.6981L15.5214 51.4436L16.2605 49.2243ZM6.79781 36.0248L11.5317 40.7587L10.4107 41.8797L5.67678 37.1458L6.79781 36.0248ZM24.8985 60.4253C23.924 61.3977 22.6275 61.9355 21.2494 61.9355C19.8714 61.9355 18.5748 61.3977 17.5994 60.4232L3.64839 46.4733C2.67394 45.4988 2.13716 44.2023 2.13716 42.8243C2.13716 41.4452 2.67394 40.1487 3.64839 39.1742L4.21613 38.6065L8.95007 43.3404L8.91291 43.3776C7.7062 44.5853 7.7062 46.5497 8.91291 47.7574L16.3152 55.1597C16.9005 55.744 17.6778 56.0671 18.5057 56.0671C19.3336 56.0671 20.1108 55.745 20.6579 55.1959L20.7354 55.1267L25.491 59.8823L24.8985 60.4253ZM27.0146 58.4846L22.2693 53.7394L23.6329 52.5068L28.3699 57.2439L27.0146 58.4846Z" fill="url(#paint0_linear_3176_4298)"/>
<path d="M60.8294 0H46.3778C44.6704 0 43.281 1.38942 43.281 3.09677V11.3548C43.281 13.0622 44.6704 14.4516 46.3778 14.4516H49.1349L48.0676 20.6772L58.0289 14.4516H60.8294C62.5367 14.4516 63.9262 13.0622 63.9262 11.3548V3.09677C63.9262 1.38942 62.5367 0 60.8294 0ZM61.8616 11.3548C61.8616 11.9236 61.3982 12.3871 60.8294 12.3871H57.4364L50.8805 16.4841L51.5835 12.3871H46.3778C45.809 12.3871 45.3455 11.9236 45.3455 11.3548V3.09677C45.3455 2.528 45.809 2.06452 46.3778 2.06452H60.8294C61.3982 2.06452 61.8616 2.528 61.8616 3.09677V11.3548Z" fill="url(#paint1_linear_3176_4298)"/>
<path d="M59.7971 4.12903H47.41V6.19355H59.7971V4.12903Z" fill="url(#paint2_linear_3176_4298)"/>
<path d="M55.6681 8.25806H47.41V10.3226H55.6681V8.25806Z" fill="url(#paint3_linear_3176_4298)"/>
<path d="M59.7971 8.25806H57.7326V10.3226H59.7971V8.25806Z" fill="url(#paint4_linear_3176_4298)"/>
<path d="M31.9261 3.09677C18.4386 3.09677 6.82057 12.4263 3.80018 25.44L1.84405 22.1791L0.0737305 23.2413L3.70212 29.2872L9.74805 25.6588L8.68586 23.8885L5.88844 25.567C8.81386 13.6619 19.5194 5.16129 31.9261 5.16129C34.6379 5.16129 37.3135 5.56387 39.8786 6.35871L40.4897 4.3871C37.7264 3.53032 34.8453 3.09677 31.9261 3.09677Z" fill="url(#paint5_linear_3176_4298)"/>
<path d="M63.4244 22.8562L57.3784 19.2278L53.7511 25.2747L55.5214 26.3369L57.3278 23.3258C58.2785 26.1078 58.7647 29.0177 58.7647 31.9999C58.7647 38.1388 56.6383 44.1403 52.7787 48.898L54.3818 50.1986C58.5397 45.0745 60.8293 38.6105 60.8293 31.9999C60.8293 28.8422 60.3204 25.7589 59.3284 22.8066L62.3622 24.6265L63.4244 22.8562Z" fill="url(#paint6_linear_3176_4298)"/>
</g>
<defs>
<linearGradient id="paint0_linear_3176_4298" x1="0.0737305" y1="0" x2="64.0736" y2="63.8523" gradientUnits="userSpaceOnUse">
<stop stop-color="#FDAB76"/>
<stop offset="1" stop-color="#FA541C"/>
</linearGradient>
<linearGradient id="paint1_linear_3176_4298" x1="0.0737305" y1="0" x2="64.0736" y2="63.8523" gradientUnits="userSpaceOnUse">
<stop stop-color="#FDAB76"/>
<stop offset="1" stop-color="#FA541C"/>
</linearGradient>
<linearGradient id="paint2_linear_3176_4298" x1="0.0737305" y1="0" x2="64.0736" y2="63.8523" gradientUnits="userSpaceOnUse">
<stop stop-color="#FDAB76"/>
<stop offset="1" stop-color="#FA541C"/>
</linearGradient>
<linearGradient id="paint3_linear_3176_4298" x1="0.0737305" y1="0" x2="64.0736" y2="63.8523" gradientUnits="userSpaceOnUse">
<stop stop-color="#FDAB76"/>
<stop offset="1" stop-color="#FA541C"/>
</linearGradient>
<linearGradient id="paint4_linear_3176_4298" x1="0.0737305" y1="0" x2="64.0736" y2="63.8523" gradientUnits="userSpaceOnUse">
<stop stop-color="#FDAB76"/>
<stop offset="1" stop-color="#FA541C"/>
</linearGradient>
<linearGradient id="paint5_linear_3176_4298" x1="0.0737305" y1="0" x2="64.0736" y2="63.8523" gradientUnits="userSpaceOnUse">
<stop stop-color="#FDAB76"/>
<stop offset="1" stop-color="#FA541C"/>
</linearGradient>
<linearGradient id="paint6_linear_3176_4298" x1="0.0737305" y1="0" x2="64.0736" y2="63.8523" gradientUnits="userSpaceOnUse">
<stop stop-color="#FDAB76"/>
<stop offset="1" stop-color="#FA541C"/>
</linearGradient>
<clipPath id="clip0_3176_4298">
<rect width="64" height="64" fill="white"/>
</clipPath>
</defs>
</svg>
