<svg width="64" height="64" viewBox="0 0 64 64" fill="none" xmlns="http://www.w3.org/2000/svg">
<path d="M48.5161 53.6774C51.3621 53.6774 53.6774 51.3621 53.6774 48.5161C53.6774 45.6702 51.3621 43.3548 48.5161 43.3548C45.6702 43.3548 43.3548 45.6702 43.3548 48.5161C43.3548 51.3621 45.6702 53.6774 48.5161 53.6774ZM48.5161 45.4194C50.2235 45.4194 51.6129 46.8088 51.6129 48.5161C51.6129 50.2235 50.2235 51.6129 48.5161 51.6129C46.8088 51.6129 45.4194 50.2235 45.4194 48.5161C45.4194 46.8088 46.8088 45.4194 48.5161 45.4194Z" fill="url(#paint0_linear_3176_4196)"/>
<path d="M64 52.415V44.6163L61.1076 43.8803C60.9848 43.552 60.8475 43.2206 60.6947 42.8934L62.2225 40.3241L57.8064 35.9092V18.5806H49.5484V33.0323H44.6173L43.8813 35.9246C43.552 36.0475 43.2217 36.1858 42.8945 36.3375L42.3226 35.9979V29.9355H34.0645V39.2258C31.1339 39.2258 28.3427 40.6348 26.5982 42.9956C26.369 43.3053 26.0955 43.5499 25.8064 43.7605V21.6774H17.5484V44.3871H11.3548V36.129H3.09677V44.5337C1.32129 44.9951 0 46.5972 0 48.5161C0 50.7933 1.85187 52.6452 4.12903 52.6452H24.0165C25.0023 52.6452 25.9437 53.152 26.5972 54.0366C28.3427 56.3974 31.1339 57.8064 34.0645 57.8064C34.6333 57.8064 35.1907 57.7373 35.7399 57.6382L40.3241 62.2225L42.8934 60.6957C43.2206 60.8475 43.551 60.9858 43.8803 61.1086L44.6173 64H52.416L53.152 61.1076C53.4813 60.9848 53.8116 60.8465 54.1388 60.6947L56.7081 62.2214L62.2225 56.7071L60.6947 54.1378C60.8465 53.8106 60.9848 53.4792 61.1076 53.151L64 52.415ZM51.6129 20.6452H55.7419V35.3848L54.1378 36.3375C53.8106 36.1858 53.4803 36.0475 53.151 35.9246L52.415 33.0323H51.6129V20.6452ZM40.2581 32V34.8769L36.129 39.0059V32H40.2581ZM19.6129 23.7419H23.7419V44.3871H19.6129V23.7419ZM9.29032 38.1935V44.3871H5.16129V38.1935H9.29032ZM28.257 52.8083C27.2093 51.392 25.664 50.5806 24.0165 50.5806H4.12903C2.99045 50.5806 2.06452 49.6547 2.06452 48.5161C2.06452 47.3775 2.99045 46.4516 4.12903 46.4516H24.0165C25.664 46.4516 27.2093 45.6403 28.257 44.224C29.6351 42.3597 31.7523 41.2903 34.0645 41.2903C36.4707 41.2903 38.7169 42.463 40.0661 44.3871H36.2292C34.4671 44.3871 33.0323 45.8219 33.0323 47.585V49.4483C33.0323 51.2103 34.4671 52.6452 36.2302 52.6452H40.0671C38.7179 54.5693 36.4707 55.7419 34.0655 55.7419C31.7523 55.7419 29.6351 54.6725 28.257 52.8083ZM39.4653 50.5806H36.2292C35.6046 50.5806 35.0968 50.0728 35.0968 49.4472V47.584C35.0968 46.9595 35.6046 46.4516 36.2302 46.4516H39.4663C39.3125 47.1257 39.2258 47.8142 39.2258 48.5161C39.2258 49.2181 39.3125 49.9066 39.4653 50.5806ZM41.6124 50.6457C41.4008 49.9592 41.2903 49.2459 41.2903 48.5161C41.2903 47.7863 41.4008 47.073 41.6124 46.3866C42.0222 46.2503 42.3226 45.8756 42.3226 45.4194V44.8155C43.6263 42.6395 45.9716 41.2903 48.5161 41.2903C52.5006 41.2903 55.7419 44.5326 55.7419 48.5161C55.7419 52.4996 52.5006 55.7419 48.5161 55.7419C45.9716 55.7419 43.6263 54.3928 42.3226 52.2168V51.6129C42.3226 51.1566 42.0222 50.7819 41.6124 50.6457ZM59.6274 56.383L56.383 59.6274L54.2194 58.3412L53.7105 58.6054C53.1345 58.9027 52.5502 59.1474 51.9732 59.3321L51.4281 59.5055L50.8108 61.9355H46.2225L45.6041 59.5055L45.0591 59.3321C44.4821 59.1474 43.8978 58.9027 43.3218 58.6054L42.8129 58.3412L40.6493 59.6274L37.9675 56.9455C39.265 56.3561 40.4181 55.4818 41.3275 54.3732C43.0751 56.5151 45.6991 57.8064 48.5161 57.8064C53.6382 57.8064 57.8064 53.6392 57.8064 48.5161C57.8064 43.393 53.6382 39.2258 48.5161 39.2258C45.6991 39.2258 43.0751 40.5172 41.3275 42.6591C40.417 41.5504 39.265 40.6761 37.9675 40.0867L40.6493 37.4049L42.8129 38.6911L43.3218 38.4268C43.8978 38.1295 44.4821 37.8849 45.0591 37.7001L45.6041 37.5267L46.2214 35.0968H50.8098L51.4281 37.5267L51.9732 37.7001C52.5502 37.8849 53.1345 38.1295 53.7105 38.4268L54.2194 38.6911L56.383 37.4049L59.6274 40.6493L58.3412 42.8119L58.6034 43.3197C58.9017 43.8978 59.1453 44.4821 59.3301 45.0601L59.5045 45.6052L61.9355 46.2214V50.8098L59.5055 51.4271L59.3311 51.9721C59.1463 52.5502 58.9027 53.1345 58.6044 53.7125L58.3422 54.2204L59.6274 56.383Z" fill="url(#paint1_linear_3176_4196)"/>
<path d="M53.6774 12.3871C55.9546 12.3871 57.8064 10.5352 57.8064 8.25806C57.8064 5.9809 55.9546 4.12903 53.6774 4.12903C51.4003 4.12903 49.5484 5.9809 49.5484 8.25806C49.5484 10.5352 51.4003 12.3871 53.6774 12.3871ZM53.6774 6.19355C54.816 6.19355 55.7419 7.11948 55.7419 8.25806C55.7419 9.39664 54.816 10.3226 53.6774 10.3226C52.5388 10.3226 51.6129 9.39664 51.6129 8.25806C51.6129 7.11948 52.5388 6.19355 53.6774 6.19355Z" fill="url(#paint2_linear_3176_4196)"/>
<path d="M21.6774 15.4839C23.9546 15.4839 25.8065 13.632 25.8065 11.3548C25.8065 9.07768 23.9546 7.22581 21.6774 7.22581C19.4003 7.22581 17.5484 9.07768 17.5484 11.3548C17.5484 13.632 19.4003 15.4839 21.6774 15.4839ZM21.6774 9.29032C22.816 9.29032 23.7419 10.2163 23.7419 11.3548C23.7419 12.4934 22.816 13.4194 21.6774 13.4194C20.5388 13.4194 19.6129 12.4934 19.6129 11.3548C19.6129 10.2163 20.5388 9.29032 21.6774 9.29032Z" fill="url(#paint3_linear_3176_4196)"/>
<path d="M38.1936 23.7419C39.9009 23.7419 41.2903 22.3525 41.2903 20.6452C41.2903 18.9378 39.9009 17.5484 38.1936 17.5484C36.4862 17.5484 35.0968 18.9378 35.0968 20.6452C35.0968 22.3525 36.4862 23.7419 38.1936 23.7419ZM38.1936 19.6129C38.7623 19.6129 39.2258 20.0754 39.2258 20.6452C39.2258 21.215 38.7623 21.6774 38.1936 21.6774C37.6248 21.6774 37.1613 21.215 37.1613 20.6452C37.1613 20.0754 37.6248 19.6129 38.1936 19.6129Z" fill="url(#paint4_linear_3176_4196)"/>
<path d="M7.22581 29.9355C8.93316 29.9355 10.3226 28.5461 10.3226 26.8387C10.3226 25.1314 8.93316 23.7419 7.22581 23.7419C5.51845 23.7419 4.12903 25.1314 4.12903 26.8387C4.12903 28.5461 5.51845 29.9355 7.22581 29.9355ZM7.22581 25.8065C7.79458 25.8065 8.25806 26.2689 8.25806 26.8387C8.25806 27.4085 7.79458 27.871 7.22581 27.871C6.65703 27.871 6.19355 27.4085 6.19355 26.8387C6.19355 26.2689 6.65703 25.8065 7.22581 25.8065Z" fill="url(#paint5_linear_3176_4196)"/>
<path d="M7.22581 34.0645C11.2103 34.0645 14.4516 30.8222 14.4516 26.8387C14.4516 25.1293 13.8519 23.5592 12.8557 22.3195L16.8506 18.0397C18.209 19.0256 19.8741 19.6129 21.6774 19.6129C24.3912 19.6129 26.7954 18.2916 28.3014 16.2643L31.4601 18.0418C31.1463 18.8511 30.9677 19.7265 30.9677 20.6452C30.9677 24.6286 34.209 27.871 38.1935 27.871C42.1781 27.871 45.4194 24.6286 45.4194 20.6452C45.4194 19.3105 45.0488 18.0635 44.416 16.9899L47.9319 14.177C49.4193 15.6222 51.4446 16.5161 53.6774 16.5161C58.2307 16.5161 61.9355 12.8114 61.9355 8.25807C61.9355 3.70477 58.2307 0 53.6774 0C49.1241 0 45.4194 3.70477 45.4194 8.25807C45.4194 9.83639 45.8725 11.3074 46.6436 12.5626L43.1246 15.3776C41.8323 14.1677 40.1001 13.4194 38.1935 13.4194C35.8658 13.4194 33.7972 14.5301 32.4748 16.2446L29.3203 14.4702C29.7146 13.5081 29.9355 12.4573 29.9355 11.3548C29.9355 6.80155 26.2307 3.09677 21.6774 3.09677C17.1241 3.09677 13.4194 6.80155 13.4194 11.3548C13.4194 13.3626 14.1409 15.2031 15.3363 16.6359L11.3466 20.9105C10.176 20.095 8.75665 19.6129 7.22581 19.6129C3.24129 19.6129 0 22.8552 0 26.8387C0 30.8222 3.24129 34.0645 7.22581 34.0645ZM53.6774 2.06452C57.0932 2.06452 59.871 4.84232 59.871 8.25807C59.871 11.6738 57.0932 14.4516 53.6774 14.4516C50.2617 14.4516 47.4839 11.6738 47.4839 8.25807C47.4839 4.84232 50.2617 2.06452 53.6774 2.06452ZM38.1935 15.4839C41.0395 15.4839 43.3548 17.7992 43.3548 20.6452C43.3548 23.4911 41.0395 25.8065 38.1935 25.8065C35.3476 25.8065 33.0323 23.4911 33.0323 20.6452C33.0323 17.7992 35.3476 15.4839 38.1935 15.4839ZM21.6774 5.16129C25.0932 5.16129 27.871 7.9391 27.871 11.3548C27.871 14.7706 25.0932 17.5484 21.6774 17.5484C18.2617 17.5484 15.4839 14.7706 15.4839 11.3548C15.4839 7.9391 18.2617 5.16129 21.6774 5.16129ZM7.22581 21.6774C10.0717 21.6774 12.3871 23.9928 12.3871 26.8387C12.3871 29.6846 10.0717 32 7.22581 32C4.37987 32 2.06452 29.6846 2.06452 26.8387C2.06452 23.9928 4.37987 21.6774 7.22581 21.6774Z" fill="url(#paint6_linear_3176_4196)"/>
<defs>
<linearGradient id="paint0_linear_3176_4196" x1="0" y1="0" x2="64" y2="64" gradientUnits="userSpaceOnUse">
<stop stop-color="#FDAB76"/>
<stop offset="1" stop-color="#FA541C"/>
</linearGradient>
<linearGradient id="paint1_linear_3176_4196" x1="0" y1="0" x2="64" y2="64" gradientUnits="userSpaceOnUse">
<stop stop-color="#FDAB76"/>
<stop offset="1" stop-color="#FA541C"/>
</linearGradient>
<linearGradient id="paint2_linear_3176_4196" x1="0" y1="0" x2="64" y2="64" gradientUnits="userSpaceOnUse">
<stop stop-color="#FDAB76"/>
<stop offset="1" stop-color="#FA541C"/>
</linearGradient>
<linearGradient id="paint3_linear_3176_4196" x1="0" y1="0" x2="64" y2="64" gradientUnits="userSpaceOnUse">
<stop stop-color="#FDAB76"/>
<stop offset="1" stop-color="#FA541C"/>
</linearGradient>
<linearGradient id="paint4_linear_3176_4196" x1="0" y1="0" x2="64" y2="64" gradientUnits="userSpaceOnUse">
<stop stop-color="#FDAB76"/>
<stop offset="1" stop-color="#FA541C"/>
</linearGradient>
<linearGradient id="paint5_linear_3176_4196" x1="0" y1="0" x2="64" y2="64" gradientUnits="userSpaceOnUse">
<stop stop-color="#FDAB76"/>
<stop offset="1" stop-color="#FA541C"/>
</linearGradient>
<linearGradient id="paint6_linear_3176_4196" x1="0" y1="0" x2="64" y2="64" gradientUnits="userSpaceOnUse">
<stop stop-color="#FDAB76"/>
<stop offset="1" stop-color="#FA541C"/>
</linearGradient>
</defs>
</svg>
