<svg width="60" height="59" viewBox="0 0 60 59" fill="none" xmlns="http://www.w3.org/2000/svg">
<path d="M58.3045 50.8901C57.4055 50.8901 56.6768 50.1343 56.6768 49.2011V30.7245C56.6768 20.955 51.6563 11.9276 43.5052 7.04229C35.3549 2.15748 25.3133 2.15748 17.1621 7.04229C9.01106 11.9271 3.9905 20.9545 3.9905 30.7245V49.2011C3.9905 50.1343 3.26183 50.8901 2.36285 50.8901C1.46447 50.8901 0.73584 50.1343 0.73584 49.2011V30.7245C0.73584 22.5759 3.85435 14.761 9.40481 8.99876C14.9553 3.23715 22.4835 0 30.3343 0C38.1838 0 45.712 3.23715 51.2622 8.99876C56.8133 14.7604 59.9311 22.575 59.9311 30.7245V49.2011C59.9311 50.1343 59.2025 50.8901 58.3041 50.8901H58.3045Z" fill="url(#paint0_linear_3176_4208)"/>
<path d="M11.2645 58.8098C9.82168 58.8079 8.43881 58.2126 7.41874 57.1536C6.39861 56.0947 5.8245 54.6585 5.82324 53.1616V42.6035C5.82324 40.5852 6.86041 38.7207 8.54364 37.7115C10.2275 36.7023 12.3019 36.7023 13.9856 37.7115C15.6688 38.7206 16.706 40.5852 16.706 42.6035V53.1616C16.7047 54.6586 16.1306 56.0948 15.1105 57.1536C14.0903 58.2126 12.7074 58.8079 11.2647 58.8098H11.2645ZM11.2645 40.3332C10.0576 40.3345 9.07918 41.3495 9.07789 42.603V53.161C9.07789 54.4145 10.057 55.4308 11.2645 55.4308C12.472 55.4308 13.4511 54.4145 13.4511 53.161V42.603C13.4499 41.3495 12.4714 40.3345 11.2645 40.3332Z" fill="url(#paint1_linear_3176_4208)"/>
<path d="M49.4056 58.8098C47.9628 58.8079 46.5799 58.2126 45.5599 57.1536C44.5397 56.0947 43.9662 54.6585 43.9644 53.1616V42.6035C43.9644 40.5852 45.0015 38.7207 46.6854 37.7115C48.3686 36.7023 50.443 36.7023 52.1267 37.7115C53.8099 38.7206 54.8471 40.5852 54.8471 42.6035V53.1616C54.8458 54.6586 54.2717 56.0948 53.2516 57.1536C52.2314 58.2126 50.8484 58.8079 49.4056 58.8098ZM49.4056 40.3332C48.1987 40.3345 47.2203 41.3495 47.219 42.603V53.161C47.219 54.4145 48.1981 55.4308 49.4056 55.4308C50.6138 55.4308 51.5922 54.4145 51.5922 53.161V42.603C51.591 41.3495 50.6131 40.3345 49.4056 40.3332Z" fill="url(#paint2_linear_3176_4208)"/>
<defs>
<linearGradient id="paint0_linear_3176_4208" x1="0.73584" y1="0" x2="51.0499" y2="58.5253" gradientUnits="userSpaceOnUse">
<stop stop-color="#FDAB76"/>
<stop offset="1" stop-color="#FA541C"/>
</linearGradient>
<linearGradient id="paint1_linear_3176_4208" x1="5.82324" y1="36.9546" x2="23.2642" y2="45.6392" gradientUnits="userSpaceOnUse">
<stop stop-color="#FDAB76"/>
<stop offset="1" stop-color="#FA541C"/>
</linearGradient>
<linearGradient id="paint2_linear_3176_4208" x1="43.9644" y1="36.9546" x2="61.4053" y2="45.6392" gradientUnits="userSpaceOnUse">
<stop stop-color="#FDAB76"/>
<stop offset="1" stop-color="#FA541C"/>
</linearGradient>
</defs>
</svg>
