<svg width="65" height="64" viewBox="0 0 65 64" fill="none" xmlns="http://www.w3.org/2000/svg">
<g clip-path="url(#clip0_3176_4202)">
<path d="M5.82818 56.7525H32.667V54.6876H5.82818C4.11796 54.6876 2.73142 53.301 2.73142 51.5908V6.17144C2.73142 4.4607 4.11796 3.07468 5.82818 3.07468H51.2476C52.9586 3.07468 54.3443 4.4607 54.3443 6.17144V29.9132H56.4093V6.17144C56.4059 3.32228 54.097 1.01362 51.2476 1.01025H5.82818C2.97954 1.01362 0.670614 3.32228 0.666992 6.17144V51.5908C0.670614 54.44 2.97954 56.7486 5.82818 56.7525Z" fill="url(#paint0_linear_3176_4202)"/>
<path d="M4.79631 5.13909H6.86048V7.20325H4.79631V5.13909Z" fill="url(#paint1_linear_3176_4202)"/>
<path d="M8.92485 5.13909H10.9898V7.20325H8.92485V5.13909Z" fill="url(#paint2_linear_3176_4202)"/>
<path d="M13.0541 5.13909H15.1188V7.20325H13.0541V5.13909Z" fill="url(#paint3_linear_3176_4202)"/>
<path d="M4.79631 9.269H52.2799V11.3339H4.79631V9.269Z" fill="url(#paint4_linear_3176_4202)"/>
<path d="M15.4211 13.699L12.7991 16.3209C10.5828 14.8537 7.6149 15.3039 5.93288 17.3623C4.25113 19.4206 4.40197 22.4187 6.28139 24.2979C8.16056 26.1778 11.159 26.3287 13.2175 24.6467C15.2757 22.9649 15.7261 19.9965 14.2586 17.7807L16.8803 15.1587L15.4211 13.699ZM9.95694 23.7189C8.24698 23.7189 6.86044 22.3326 6.86044 20.6224C6.86044 18.9119 8.24698 17.5259 9.95694 17.5259C10.4175 17.5274 10.8705 17.633 11.2837 17.835L9.22757 19.8914L10.6868 21.3512L12.7445 19.2961C12.9466 19.709 13.0524 20.1621 13.054 20.6224C13.054 22.3326 11.6679 23.7189 9.95694 23.7189Z" fill="url(#paint5_linear_3176_4202)"/>
<path d="M18.2154 17.5265H35.7634V19.5906H18.2154V17.5265Z" fill="url(#paint6_linear_3176_4202)"/>
<path d="M18.2154 21.6548H25.441V23.719H18.2154V21.6548Z" fill="url(#paint7_linear_3176_4202)"/>
<path d="M27.5057 21.6548H41.9569V23.719H27.5057V21.6548Z" fill="url(#paint8_linear_3176_4202)"/>
<path d="M37.8282 17.5265H48.1509V19.5906H37.8282V17.5265Z" fill="url(#paint9_linear_3176_4202)"/>
<path d="M15.4211 26.0863L12.7991 28.7083C10.5828 27.2411 7.6149 27.6913 5.93288 29.7497C4.25113 31.8082 4.40197 34.8061 6.28139 36.6858C8.16056 38.5652 11.159 38.7161 13.2175 37.0341C15.2757 35.3521 15.7261 32.3847 14.2586 30.1681L16.8803 27.5461L15.4211 26.0863ZM9.95694 36.1065C8.24698 36.1065 6.86044 34.72 6.86044 33.0098C6.86044 31.2993 8.24698 29.9127 9.95694 29.9127C10.4175 29.9145 10.8705 30.0204 11.2837 30.2224L9.22757 32.2794L10.6868 33.7386L12.7445 31.6832C12.9466 32.0964 13.0524 32.5495 13.054 33.0098C13.054 34.72 11.6679 36.1065 9.95694 36.1065Z" fill="url(#paint10_linear_3176_4202)"/>
<path d="M18.2154 29.9133H35.7634V31.978H18.2154V29.9133Z" fill="url(#paint11_linear_3176_4202)"/>
<path d="M18.2154 34.0422H25.441V36.1067H18.2154V34.0422Z" fill="url(#paint12_linear_3176_4202)"/>
<path d="M27.5057 34.0422H35.7635V36.1067H27.5057V34.0422Z" fill="url(#paint13_linear_3176_4202)"/>
<path d="M37.8282 29.9133H41.9571V31.978H37.8282V29.9133Z" fill="url(#paint14_linear_3176_4202)"/>
<path d="M49.1835 62.946C57.7354 62.946 64.667 56.013 64.667 47.4619C64.667 38.91 57.7354 31.9778 49.1835 31.9778C40.6316 31.9778 33.6994 38.91 33.6994 47.4619C33.7095 56.0091 40.6358 62.9356 49.1835 62.946ZM49.1835 34.0425C56.5943 34.0425 62.6029 40.0505 62.6029 47.4619C62.6029 54.8733 56.5943 60.881 49.1835 60.881C41.7719 60.881 35.7636 54.8733 35.7636 47.4619C35.7724 40.0541 41.7752 34.0507 49.1835 34.0425Z" fill="url(#paint15_linear_3176_4202)"/>
<path d="M42.8866 48.0322L41.0387 48.9548L43.1034 53.0839C43.2514 53.381 43.5339 53.5887 43.8617 53.6418C43.915 53.65 43.9683 53.6544 44.0219 53.6552C44.2954 53.6552 44.558 53.5463 44.752 53.3527L57.1386 40.9657L55.6793 39.5059L44.3044 50.8803L42.8866 48.0322Z" fill="url(#paint16_linear_3176_4202)"/>
</g>
<defs>
<linearGradient id="paint0_linear_3176_4202" x1="0.666992" y1="1.01025" x2="62.5694" y2="64.9759" gradientUnits="userSpaceOnUse">
<stop stop-color="#FDAB76"/>
<stop offset="1" stop-color="#FA541C"/>
</linearGradient>
<linearGradient id="paint1_linear_3176_4202" x1="0.666992" y1="1.01025" x2="62.5694" y2="64.9759" gradientUnits="userSpaceOnUse">
<stop stop-color="#FDAB76"/>
<stop offset="1" stop-color="#FA541C"/>
</linearGradient>
<linearGradient id="paint2_linear_3176_4202" x1="0.666992" y1="1.01025" x2="62.5694" y2="64.9759" gradientUnits="userSpaceOnUse">
<stop stop-color="#FDAB76"/>
<stop offset="1" stop-color="#FA541C"/>
</linearGradient>
<linearGradient id="paint3_linear_3176_4202" x1="0.666992" y1="1.01025" x2="62.5694" y2="64.9759" gradientUnits="userSpaceOnUse">
<stop stop-color="#FDAB76"/>
<stop offset="1" stop-color="#FA541C"/>
</linearGradient>
<linearGradient id="paint4_linear_3176_4202" x1="0.666992" y1="1.01025" x2="62.5694" y2="64.9759" gradientUnits="userSpaceOnUse">
<stop stop-color="#FDAB76"/>
<stop offset="1" stop-color="#FA541C"/>
</linearGradient>
<linearGradient id="paint5_linear_3176_4202" x1="0.666992" y1="1.01025" x2="62.5694" y2="64.9759" gradientUnits="userSpaceOnUse">
<stop stop-color="#FDAB76"/>
<stop offset="1" stop-color="#FA541C"/>
</linearGradient>
<linearGradient id="paint6_linear_3176_4202" x1="0.666992" y1="1.01025" x2="62.5694" y2="64.9759" gradientUnits="userSpaceOnUse">
<stop stop-color="#FDAB76"/>
<stop offset="1" stop-color="#FA541C"/>
</linearGradient>
<linearGradient id="paint7_linear_3176_4202" x1="0.666992" y1="1.01025" x2="62.5694" y2="64.9759" gradientUnits="userSpaceOnUse">
<stop stop-color="#FDAB76"/>
<stop offset="1" stop-color="#FA541C"/>
</linearGradient>
<linearGradient id="paint8_linear_3176_4202" x1="0.666992" y1="1.01025" x2="62.5694" y2="64.9759" gradientUnits="userSpaceOnUse">
<stop stop-color="#FDAB76"/>
<stop offset="1" stop-color="#FA541C"/>
</linearGradient>
<linearGradient id="paint9_linear_3176_4202" x1="0.666992" y1="1.01025" x2="62.5694" y2="64.9759" gradientUnits="userSpaceOnUse">
<stop stop-color="#FDAB76"/>
<stop offset="1" stop-color="#FA541C"/>
</linearGradient>
<linearGradient id="paint10_linear_3176_4202" x1="0.666992" y1="1.01025" x2="62.5694" y2="64.9759" gradientUnits="userSpaceOnUse">
<stop stop-color="#FDAB76"/>
<stop offset="1" stop-color="#FA541C"/>
</linearGradient>
<linearGradient id="paint11_linear_3176_4202" x1="0.666992" y1="1.01025" x2="62.5694" y2="64.9759" gradientUnits="userSpaceOnUse">
<stop stop-color="#FDAB76"/>
<stop offset="1" stop-color="#FA541C"/>
</linearGradient>
<linearGradient id="paint12_linear_3176_4202" x1="0.666992" y1="1.01025" x2="62.5694" y2="64.9759" gradientUnits="userSpaceOnUse">
<stop stop-color="#FDAB76"/>
<stop offset="1" stop-color="#FA541C"/>
</linearGradient>
<linearGradient id="paint13_linear_3176_4202" x1="0.666992" y1="1.01025" x2="62.5694" y2="64.9759" gradientUnits="userSpaceOnUse">
<stop stop-color="#FDAB76"/>
<stop offset="1" stop-color="#FA541C"/>
</linearGradient>
<linearGradient id="paint14_linear_3176_4202" x1="0.666992" y1="1.01025" x2="62.5694" y2="64.9759" gradientUnits="userSpaceOnUse">
<stop stop-color="#FDAB76"/>
<stop offset="1" stop-color="#FA541C"/>
</linearGradient>
<linearGradient id="paint15_linear_3176_4202" x1="0.666992" y1="1.01025" x2="62.5694" y2="64.9759" gradientUnits="userSpaceOnUse">
<stop stop-color="#FDAB76"/>
<stop offset="1" stop-color="#FA541C"/>
</linearGradient>
<linearGradient id="paint16_linear_3176_4202" x1="0.666992" y1="1.01025" x2="62.5694" y2="64.9759" gradientUnits="userSpaceOnUse">
<stop stop-color="#FDAB76"/>
<stop offset="1" stop-color="#FA541C"/>
</linearGradient>
<clipPath id="clip0_3176_4202">
<rect width="64" height="64" fill="white" transform="translate(0.666992)"/>
</clipPath>
</defs>
</svg>
