<svg width="54" height="57" viewBox="0 0 54 57" fill="none" xmlns="http://www.w3.org/2000/svg">
<path d="M35.6115 22.2454V18.1027C35.6115 17.8127 35.389 17.5787 35.1151 17.5787H32.1343C31.8603 17.5787 31.6379 17.8135 31.6379 18.1027V19.647L28.1269 17.3508C27.4278 16.8933 26.542 16.8933 25.8421 17.3517L15.1665 24.3449V29.7322L17.156 28.4297V38.2109C17.156 39.1924 17.9124 39.9899 18.8414 39.9899H35.1553C36.0851 39.9899 36.8406 39.1915 36.8406 38.2109V28.4332L38.8326 29.7356V24.3519L35.6115 22.2454ZM34.6083 37.632H29.821V28.7301C29.821 28.4005 29.5684 28.1343 29.2566 28.1343H24.74C24.4277 28.1343 24.1755 28.4009 24.1755 28.7301V31.7099H25.8693C26.1816 31.7099 26.4337 31.9765 26.4337 32.3057C26.4337 32.6353 26.1812 32.9015 25.8693 32.9015H24.1755V37.6329H19.3882V26.9659L21.3826 25.6591L24.9818 23.3017L26.9852 21.9897L28.9924 23.3017L32.5989 25.6591L34.6074 26.972V37.6322L34.6083 37.632Z" fill="url(#paint0_linear_3176_4278)"/>
<path d="M32.0011 53.1969C32.1964 50.4698 29.4113 50.4968 29.4113 50.4968L22.3515 50.0132C22.1553 50.0002 21.9547 50.0158 21.7611 50.0545C13.3475 51.724 11.0581 44.3642 11.0581 44.3642C13.563 47.7937 17.2939 48.9678 19.4519 48.7086C21.3973 48.5159 22.1468 47.1969 19.7659 45.3108C16.2273 42.508 15.4177 40.9729 15.2818 40.2445C15.1388 39.4778 14.9514 38.7151 14.5826 38.038C11.2109 31.8419 3.4504 33.1056 3.4504 33.1056L3.39067 33.874L2.71171 42.5624L2.60624 43.9031C2.60295 43.9453 2.62849 43.9844 2.6668 43.9944H2.66763C3.20816 44.1179 3.79773 44.0792 4.35724 44.0188C5.65999 43.8792 6.46946 44.4841 7.0739 45.68C8.12159 47.7579 9.29159 49.7657 10.3648 51.8296C10.5997 52.2827 10.8572 52.6911 11.1361 53.0537C11.1377 53.0563 11.1402 53.0581 11.1419 53.0607C12.3041 54.3149 13.6344 54.9168 14.7311 55.2008C15.9749 55.5243 16.9187 55.4391 16.9785 55.4338H16.9851L29.4473 55.3586C30.0434 55.3395 30.5218 55.2482 30.8987 55.1064C31.9332 54.7172 31.9463 53.9727 32.0011 53.1969Z" fill="url(#paint1_linear_3176_4278)"/>
<path d="M21.9986 3.80296C21.8033 6.5305 24.5871 6.50312 24.5871 6.50312L31.647 6.9867C31.8431 6.99975 32.0437 6.98409 32.2374 6.94539C40.6509 5.27591 42.9403 12.6357 42.9403 12.6357C40.4354 9.20624 36.7045 8.03206 34.5465 8.29135C32.6011 8.484 31.8517 9.80296 34.2326 11.6891C37.7711 14.4919 38.5807 16.027 38.7167 16.7554C38.8596 17.5221 39.0471 18.2848 39.4158 18.9619C42.7875 25.158 50.548 23.8943 50.548 23.8943L50.6078 23.1259L51.2867 14.4375L51.3922 13.0968C51.3955 13.0546 51.3699 13.0155 51.3316 13.0055H51.3308C50.7903 12.882 50.2007 12.9207 49.6412 12.9811C48.3393 13.1194 47.5297 12.5158 46.9254 11.3185C45.8777 9.24071 44.7077 7.23291 43.6344 5.169C43.3996 4.71586 43.1421 4.30751 42.8632 3.94484C42.8615 3.94223 42.8591 3.94049 42.8574 3.93788C41.6952 2.68366 40.3649 2.08181 39.2682 1.79782C38.0244 1.47427 37.0806 1.55951 37.0208 1.56472H37.0142L24.552 1.63995C23.9559 1.65909 23.4775 1.75041 23.1005 1.89218C22.0665 2.28269 22.0534 3.02756 21.9986 3.80296Z" fill="url(#paint2_linear_3176_4278)"/>
<defs>
<linearGradient id="paint0_linear_3176_4278" x1="15.1665" y1="17.0078" x2="38.1387" y2="40.6638" gradientUnits="userSpaceOnUse">
<stop stop-color="#FDAB76"/>
<stop offset="1" stop-color="#FA541C"/>
</linearGradient>
<linearGradient id="paint1_linear_3176_4278" x1="2.60596" y1="32.9995" x2="24.2604" y2="61.3647" gradientUnits="userSpaceOnUse">
<stop stop-color="#FDAB76"/>
<stop offset="1" stop-color="#FA541C"/>
</linearGradient>
<linearGradient id="paint2_linear_3176_4278" x1="21.9888" y1="1.55078" x2="43.6451" y2="29.9155" gradientUnits="userSpaceOnUse">
<stop stop-color="#FDAB76"/>
<stop offset="1" stop-color="#FA541C"/>
</linearGradient>
</defs>
</svg>
