<svg width="94" height="77" viewBox="0 0 94 77" fill="none" xmlns="http://www.w3.org/2000/svg">
<path d="M38.8371 45.4628C40.293 45.4628 41.6901 44.984 42.7196 44.1316C43.7492 43.2792 44.3281 42.1225 44.3281 40.917C44.3281 39.7115 43.7492 38.5548 42.7196 37.7024C41.6901 36.85 40.2931 36.3706 38.8371 36.3706C37.381 36.3706 35.984 36.85 34.9545 37.7024C33.9249 38.5548 33.3467 39.7115 33.3467 40.917C33.3467 42.1225 33.9249 43.2792 34.9545 44.1316C35.984 44.984 37.381 45.4628 38.8371 45.4628ZM38.8371 37.8862C39.8077 37.8862 40.7387 38.2052 41.4254 38.7739C42.1123 39.342 42.4975 40.1133 42.4975 40.917C42.4975 41.7206 42.1123 42.4914 41.4254 43.06C40.7386 43.6281 39.8077 43.9477 38.8371 43.9477C37.8664 43.9477 36.9355 43.6281 36.2487 43.06C35.5626 42.4914 35.1766 41.7206 35.1766 40.917C35.1766 40.1133 35.5626 39.3419 36.2487 38.7739C36.9355 38.2052 37.8664 37.8862 38.8371 37.8862Z" fill="url(#paint0_linear_3176_4216)"/>
<path d="M21.9896 45.4628C23.4456 45.4628 24.8419 44.984 25.8722 44.1316C26.9017 43.2792 27.48 42.1225 27.48 40.917C27.48 39.7115 26.9017 38.5548 25.8722 37.7024C24.8419 36.85 23.4457 36.3706 21.9896 36.3706C20.533 36.3706 19.1366 36.85 18.1071 37.7024C17.0768 38.5548 16.4985 39.7115 16.4985 40.917C16.4985 42.1225 17.0768 43.2792 18.1071 44.1316C19.1366 44.984 20.5329 45.4628 21.9896 45.4628ZM21.9896 37.8862C22.9603 37.8862 23.8912 38.2052 24.578 38.7739C25.2641 39.342 25.6501 40.1133 25.6501 40.917C25.6501 41.7206 25.2641 42.4914 24.578 43.06C23.8912 43.6281 22.9603 43.9477 21.9896 43.9477C21.0183 43.9477 20.0873 43.6281 19.4012 43.06C18.7144 42.4914 18.3291 41.7206 18.3291 40.917C18.3291 40.1133 18.7144 39.3419 19.4012 38.7739C20.0874 38.2052 21.0183 37.8862 21.9896 37.8862Z" fill="url(#paint1_linear_3176_4216)"/>
<path d="M41.5091 51.4788H36.1834C35.9116 51.4277 35.6271 51.4818 35.4093 51.6251C35.1915 51.769 35.0645 51.987 35.0645 52.2179C35.0645 52.4481 35.1915 52.6661 35.4093 52.81C35.6271 52.9539 35.9116 53.0074 36.1834 52.9563H41.5091C41.7808 53.0074 42.0654 52.9539 42.2832 52.81C42.501 52.6661 42.6273 52.4481 42.6273 52.2179C42.6273 51.987 42.501 51.769 42.2832 51.6251C42.0654 51.4818 41.7808 51.4277 41.5091 51.4788Z" fill="url(#paint2_linear_3176_4216)"/>
<path d="M24.6438 51.4785H19.345C18.9285 51.5572 18.6333 51.8639 18.6333 52.2176C18.6333 52.5706 18.9285 52.8773 19.345 52.956H24.6438C25.0603 52.8773 25.3555 52.5706 25.3555 52.2176C25.3555 51.8639 25.0603 51.5572 24.6438 51.4785Z" fill="url(#paint3_linear_3176_4216)"/>
<path d="M41.5091 48.7582H36.1834C35.9116 48.7071 35.6271 48.7606 35.4093 48.9045C35.1915 49.0484 35.0645 49.2664 35.0645 49.4966C35.0645 49.7275 35.1915 49.9455 35.4093 50.0894C35.6271 50.2327 35.9116 50.2868 36.1834 50.2357H41.5091C41.7808 50.2868 42.0654 50.2327 42.2832 50.0894C42.501 49.9455 42.6273 49.7275 42.6273 49.4966C42.6273 49.2664 42.501 49.0484 42.2832 48.9045C42.0654 48.7606 41.7808 48.7071 41.5091 48.7582Z" fill="url(#paint4_linear_3176_4216)"/>
<path d="M24.6438 48.7578H19.345C18.9285 48.8365 18.6333 49.1426 18.6333 49.4963C18.6333 49.8499 18.9285 50.1566 19.345 50.2353H24.6438C25.0603 50.1566 25.3555 49.8499 25.3555 49.4963C25.3555 49.1426 25.0603 48.8365 24.6438 48.7578Z" fill="url(#paint5_linear_3176_4216)"/>
<path d="M61.9342 35.4696C60.2938 35.9302 59.0123 37.0046 58.4767 38.3687C57.941 39.7328 58.2141 41.2267 59.2139 42.3981C60.2136 43.5695 61.8221 44.2814 63.5542 44.319C64.1069 44.319 64.6561 44.2503 65.1833 44.1146C66.8847 43.5295 68.1186 42.2776 68.4692 40.7801C68.8197 39.2827 68.2393 37.74 66.9252 36.6714C65.6104 35.6028 63.7364 35.1518 61.9342 35.4696ZM65.3024 37.0758C66.366 37.5393 67.0875 38.4058 67.2316 39.3939C67.3763 40.3826 66.9251 41.3666 66.0254 42.0263C65.125 42.6866 63.8911 42.9386 62.7231 42.7007C61.556 42.4628 60.6038 41.7655 60.1765 40.8356C59.7487 39.905 59.9005 38.8599 60.5824 38.0398C61.2635 37.2197 62.3882 36.7292 63.5907 36.7274C64.1867 36.7262 64.7742 36.8461 65.3021 37.0758L65.3024 37.0758Z" fill="url(#paint6_linear_3176_4216)"/>
<path d="M64.717 50.5159C64.4389 50.5329 64.1855 50.6545 64.0287 50.8454C63.8712 51.0364 63.8286 51.2766 63.9117 51.4969C63.9947 51.7178 64.1948 51.8946 64.4552 51.9781C64.7149 52.0615 65.0072 52.0421 65.2477 51.9252L70.3088 50.6222C70.5869 50.6046 70.8402 50.4836 70.997 50.2926C71.1538 50.1011 71.1971 49.8614 71.1141 49.6411C71.0311 49.4202 70.831 49.2434 70.5706 49.16C70.3102 49.0766 70.0186 49.096 69.7781 49.2129L64.717 50.5159Z" fill="url(#paint7_linear_3176_4216)"/>
<path d="M63.736 47.9251C63.4579 47.9421 63.2046 48.0637 63.0478 48.2546C62.8903 48.4456 62.8477 48.6858 62.9307 48.9061C63.0137 49.127 63.2138 49.3038 63.4742 49.3873C63.7339 49.4707 64.0262 49.4513 64.2668 49.3344L69.3271 48.0314H69.3278C69.6059 48.0138 69.8593 47.8927 70.0161 47.7018C70.1729 47.5103 70.2162 47.2706 70.1331 47.0503C70.0501 46.8294 69.85 46.6526 69.5896 46.5692C69.3292 46.4858 69.0376 46.5052 68.7971 46.6221L63.736 47.9251Z" fill="url(#paint8_linear_3176_4216)"/>
<path d="M81.2809 48.349L68.5512 14.4585V14.4126C68.5334 14.3762 68.5122 14.341 68.4873 14.3069L68.3958 14.254V14.2164L68.3319 14.1712L68.2404 14.1031L68.0481 14.019L67.9381 13.9814H67.4535L52.6654 17.7699L52.6647 17.7693C52.6661 17.7441 52.6661 17.7188 52.6647 17.6936C52.625 17.6242 52.5725 17.5602 52.5093 17.5044C52.4249 17.4363 52.3256 17.3822 52.2163 17.3452H18.1187C17.864 17.3475 17.6213 17.438 17.451 17.5949L12.8753 21.9063C12.815 21.9633 12.7661 22.0267 12.7285 22.0954V22.1336C12.6972 22.2041 12.6788 22.2781 12.6738 22.3533V59.578C12.6774 59.7813 12.7795 59.9751 12.9576 60.1155C15.3055 61.9326 18.3727 62.9782 21.5848 63.0575C24.797 63.1374 27.9337 62.245 30.4086 60.5473C32.8834 62.2451 36.0209 63.1375 39.233 63.0575C42.4452 62.9782 45.5124 61.9325 47.8602 60.1155C47.917 60.0703 47.966 60.0198 48.0064 59.964L52.5821 53.8574C52.6659 53.7405 52.7105 53.6071 52.7105 53.4708V36.8015L61.3492 59.8654C61.4251 60.0605 61.594 60.2214 61.8161 60.3125C63.6012 61.0304 65.5595 61.4034 67.5448 61.4034C69.8715 61.4063 72.1581 60.9011 74.174 59.9395C76.1906 58.9778 77.8649 57.5931 79.0292 55.9254V55.8878V55.8273V55.8267C79.0548 55.7879 79.0761 55.7474 79.0931 55.7057L81.2345 48.7578C81.2948 48.6274 81.3111 48.4858 81.2806 48.3483L81.2809 48.349ZM62.9788 16.6707L66.0809 15.8753L64.3241 19.1639L64.2417 19.3154L61.1397 20.1109L62.9788 16.6707ZM57.6346 18.0424L60.7274 17.2394L58.8968 20.679L55.7947 21.4744L57.6346 18.0424ZM50.9082 21.9825L52.272 19.4218L52.6835 19.3155L55.3649 18.6258L53.5343 22.0654L52.6836 22.2851L50.8991 22.7474L50.4322 22.8685L50.9082 21.9825ZM44.2549 18.7245L41.2352 21.5584H37.9869L40.9705 18.7245H44.2549ZM35.3963 18.7245H38.6453L35.6617 21.5584H32.3587L35.3963 18.7245ZM27.4161 18.7245L24.3971 21.5584H21.1481L24.1224 18.7245H27.4161ZM18.5575 18.7245H21.8065L18.8229 21.5584H15.5385L18.5575 18.7245ZM29.539 59.2532H29.5397C27.4537 60.7583 24.7801 61.5873 22.0128 61.5873C19.2455 61.5873 16.5722 60.7584 14.486 59.2532V23.0362H29.521L29.539 59.2532ZM30.0243 21.5593H26.7577L29.7413 18.7254H32.9903L30.0243 21.5593ZM46.3599 59.2532C44.274 60.7583 41.5997 61.5873 38.8331 61.5873C36.066 61.5873 33.3924 60.7584 31.3058 59.2532V23.0362H46.3599V59.2532ZM46.8453 21.5593H43.6055L46.5892 18.7254H49.8374L46.8453 21.5593ZM49.1421 21.6198L48.1353 23.4991V22.5897L49.1421 21.6198ZM50.8989 53.2605L48.1538 56.9734V24.7116L50.8989 32.0536V53.2605ZM62.9326 59.1175L52.6834 31.8411L50.8989 27.098L49.9836 24.5448L50.8989 24.2945L52.6834 23.8322L59.812 21.9988L63.271 21.0741L64.3233 20.8015L77.3176 55.3899H77.3184C75.8709 57.3468 73.6152 58.803 70.9702 59.4886C68.3251 60.1742 65.4699 60.042 62.9326 59.1179L62.9326 59.1175ZM78.1968 52.7981L70.0251 31.0531L65.8609 19.9529L67.5538 16.7783L79.4959 48.601L78.1968 52.7981Z" fill="url(#paint9_linear_3176_4216)"/>
<defs>
<linearGradient id="paint0_linear_3176_4216" x1="33.3467" y1="36.3706" x2="42.2792" y2="47.1592" gradientUnits="userSpaceOnUse">
<stop stop-color="#FDAB76"/>
<stop offset="1" stop-color="#FA541C"/>
</linearGradient>
<linearGradient id="paint1_linear_3176_4216" x1="16.4985" y1="36.3706" x2="25.431" y2="47.1592" gradientUnits="userSpaceOnUse">
<stop stop-color="#FDAB76"/>
<stop offset="1" stop-color="#FA541C"/>
</linearGradient>
<linearGradient id="paint2_linear_3176_4216" x1="35.0645" y1="51.46" x2="35.6482" y2="54.3736" gradientUnits="userSpaceOnUse">
<stop stop-color="#FDAB76"/>
<stop offset="1" stop-color="#FA541C"/>
</linearGradient>
<linearGradient id="paint3_linear_3176_4216" x1="18.6333" y1="51.4785" x2="19.2529" y2="54.2973" gradientUnits="userSpaceOnUse">
<stop stop-color="#FDAB76"/>
<stop offset="1" stop-color="#FA541C"/>
</linearGradient>
<linearGradient id="paint4_linear_3176_4216" x1="35.0645" y1="48.7393" x2="35.6482" y2="51.6529" gradientUnits="userSpaceOnUse">
<stop stop-color="#FDAB76"/>
<stop offset="1" stop-color="#FA541C"/>
</linearGradient>
<linearGradient id="paint5_linear_3176_4216" x1="18.6333" y1="48.7578" x2="19.2529" y2="51.5766" gradientUnits="userSpaceOnUse">
<stop stop-color="#FDAB76"/>
<stop offset="1" stop-color="#FA541C"/>
</linearGradient>
<linearGradient id="paint6_linear_3176_4216" x1="58.2075" y1="35.3696" x2="67.0617" y2="45.6213" gradientUnits="userSpaceOnUse">
<stop stop-color="#FDAB76"/>
<stop offset="1" stop-color="#FA541C"/>
</linearGradient>
<linearGradient id="paint7_linear_3176_4216" x1="63.8701" y1="49.1089" x2="65.8872" y2="54.141" gradientUnits="userSpaceOnUse">
<stop stop-color="#FDAB76"/>
<stop offset="1" stop-color="#FA541C"/>
</linearGradient>
<linearGradient id="paint8_linear_3176_4216" x1="62.8892" y1="46.5181" x2="64.9063" y2="51.5501" gradientUnits="userSpaceOnUse">
<stop stop-color="#FDAB76"/>
<stop offset="1" stop-color="#FA541C"/>
</linearGradient>
<linearGradient id="paint9_linear_3176_4216" x1="12.6738" y1="13.9814" x2="59.1219" y2="78.922" gradientUnits="userSpaceOnUse">
<stop stop-color="#FDAB76"/>
<stop offset="1" stop-color="#FA541C"/>
</linearGradient>
</defs>
</svg>
