<svg width="90" height="68" viewBox="0 0 90 68" fill="none" xmlns="http://www.w3.org/2000/svg">
<path fill-rule="evenodd" clip-rule="evenodd" d="M20.9987 36.0905V36.7878C20.9987 36.8184 21.0001 36.849 21.0022 36.8796L21.0042 36.8993L21.0077 36.9325C21.0502 37.2869 21.2363 37.5416 21.476 37.7232C21.8138 38.0044 22.3013 38.1818 22.8438 38.1818C22.8438 38.1818 24.6881 38.0884 24.6881 36.779V36.0906C24.6881 32.6266 20.9706 29.8179 16.3859 29.8179H16.3825C16.2589 29.8179 16.1387 29.7826 16.0481 29.7188L13.7643 28.1141C11.5945 26.497 8.19417 26.5582 6.03347 28.1893L6.02798 28.1935C3.88222 29.8163 3.86991 32.4399 5.98953 34.0751C5.97648 34.0637 7.22961 35.1625 7.22961 35.1625C7.78098 35.646 8.0838 36.2624 8.0838 36.9005V38.2416C8.0838 40.3843 9.3438 42.4154 11.5205 43.7871L11.5226 43.7886C12.8512 44.6249 13.6189 45.8628 13.6189 47.1691V57.6976C13.6189 58.4675 14.445 59.0916 15.4639 59.0916C16.4822 59.0916 17.3089 58.4674 17.3089 57.6976V47.1691C17.3089 45.0348 16.0537 43.0119 13.8859 41.647C13.8846 41.646 13.8846 41.646 13.8825 41.646C12.5463 40.804 11.7738 39.5563 11.7738 38.2416V36.9005C11.7738 35.5947 11.1517 34.3313 10.0243 33.3415C9.37676 32.7745 8.73131 32.2084 8.73131 32.2084C8.70178 32.182 8.67019 32.1566 8.63861 32.1332C7.919 31.5895 7.919 30.7085 8.63861 30.166C8.63861 30.165 8.64273 30.1619 8.64273 30.1619C9.35478 29.6254 10.4747 29.5694 11.1847 30.1063L13.5337 31.7597C14.3089 32.3034 15.3251 32.6059 16.3826 32.6059H16.386C18.9341 32.6059 20.9987 34.1653 20.9987 36.0905Z" fill="url(#paint0_linear_3176_4257)"/>
<path fill-rule="evenodd" clip-rule="evenodd" d="M21.1938 6.41074C20.5642 6.22241 19.8762 6.11917 19.1586 6.11917H19.1511C16.0962 6.11917 13.6201 7.98997 13.6201 10.2987V31.2113C13.6201 31.9807 14.4461 32.6053 15.4651 32.6053C16.4834 32.6053 17.3101 31.9807 17.3101 31.2113V10.2987C17.3101 9.5303 18.1348 8.90717 19.1511 8.90717H19.1586C20.1749 8.90717 21.0003 9.53025 21.0003 10.2987C21.0003 11.068 21.8263 11.6921 22.8453 11.6921C23.8636 11.6921 24.6896 11.068 24.6896 10.2987V7.51065C24.6896 6.7423 25.5149 6.11917 26.5312 6.11917H26.5388C27.555 6.11917 28.3798 6.74225 28.3798 7.51065V11.6921C28.3798 12.462 29.2065 13.0861 30.2248 13.0861C31.2437 13.0861 32.0698 12.462 32.0698 11.6921C32.0698 10.9243 32.8951 10.3012 33.9114 10.3012H33.919C34.9352 10.3012 35.7599 10.9243 35.7599 11.6921V15.8741C35.7599 16.644 36.5866 17.2681 37.6049 17.2681C38.6239 17.2681 39.4499 16.644 39.4499 15.8741C39.4499 15.1063 40.2746 14.4832 41.2916 14.4832H41.2991C42.3154 14.4832 43.1401 15.1063 43.1401 15.8741V30.514C43.1401 31.2834 43.9668 31.908 44.9851 31.908C46.0041 31.908 46.8301 31.2834 46.8301 30.514V15.8741C46.8301 13.566 44.354 11.6952 41.2991 11.6952H41.2916C40.6461 11.6952 40.0261 11.7787 39.4499 11.9323V11.6921C39.4499 9.38392 36.9739 7.51312 33.919 7.51312H33.9114C33.266 7.51312 32.6459 7.59665 32.0698 7.75022V7.51053C32.0698 5.20185 29.5937 3.33105 26.5388 3.33105H26.5312C23.9796 3.33105 21.8319 4.63583 21.194 6.41071L21.1938 6.41074Z" fill="url(#paint1_linear_3176_4257)"/>
<path fill-rule="evenodd" clip-rule="evenodd" d="M73.7787 29.8178H73.5817C68.9962 29.8178 65.2788 32.6265 65.2788 36.0906V36.7878C65.2788 36.8184 65.2809 36.849 65.2829 36.8797L65.2843 36.8994L65.2884 36.9326C65.3303 37.2869 65.5171 37.5416 65.7567 37.7232C66.0945 38.0044 66.5814 38.1818 67.1238 38.1818C67.1238 38.1818 68.9688 38.0884 68.9688 36.7791V36.0906C68.9688 34.1654 71.0335 32.6059 73.5817 32.6059H74.5038C74.9707 32.6059 75.4191 32.472 75.7604 32.2323L78.7822 30.1063C79.4929 29.5693 80.6128 29.6254 81.3249 30.1618L81.3284 30.1659C82.048 30.7086 82.048 31.5896 81.3284 32.1332C81.2975 32.1565 81.2659 32.1819 81.2363 32.2084C81.2363 32.2084 80.5902 32.7744 79.9427 33.3414C78.8159 34.3313 78.1938 35.5946 78.1938 36.9004V38.2416C78.1938 39.5562 77.4207 40.8039 76.0851 41.6459C76.0831 41.6459 76.0831 41.6459 76.081 41.647C73.9133 43.0119 72.6587 45.0348 72.6587 47.1691V57.6975C72.6587 58.4674 73.4855 59.0915 74.5037 59.0915C75.522 59.0915 76.3487 58.4674 76.3487 57.6975V47.1691C76.3487 45.8627 77.1164 44.6249 78.4444 43.7886C78.4444 43.7886 78.4444 43.787 78.4465 43.787C80.6239 42.4153 81.8839 40.3842 81.8839 38.2416V36.9004C81.8839 36.2623 82.1867 35.646 82.7381 35.1624L83.9912 34.0636C86.0977 32.4285 86.0814 29.8136 83.939 28.1935L83.9335 28.1893C81.7679 26.5541 78.356 26.497 76.1868 28.1255L73.7787 29.8178Z" fill="url(#paint2_linear_3176_4257)"/>
<path fill-rule="evenodd" clip-rule="evenodd" d="M50.5193 11.9332C49.9439 11.7797 49.3239 11.6961 48.6784 11.6961H48.6708C45.6152 11.6961 43.1392 13.5669 43.1392 15.8751C43.1392 16.645 43.9659 17.2691 44.9842 17.2691C46.0031 17.2691 46.8292 16.645 46.8292 15.8751C46.8292 15.1073 47.6538 14.4841 48.6708 14.4841H48.6784C49.6946 14.4841 50.5193 15.1072 50.5193 15.8751C50.5193 16.645 51.346 17.2691 52.3643 17.2691C53.3826 17.2691 54.2093 16.645 54.2093 15.8751V11.6931C54.2093 10.9253 55.034 10.3021 56.051 10.3021H56.0585C57.0748 10.3021 57.8995 10.9252 57.8995 11.6931C57.8995 12.463 58.7262 13.0871 59.7445 13.0871C60.7628 13.0871 61.5895 12.463 61.5895 11.6931V7.5116C61.5895 6.74325 62.4142 6.12012 63.4312 6.12012H63.4387C64.4549 6.12012 65.2797 6.7432 65.2797 7.5116V10.2996C65.2797 11.069 66.1064 11.6931 67.1247 11.6931C68.143 11.6931 68.9697 11.069 68.9697 10.2996C68.9697 9.53125 69.7943 8.90812 70.8113 8.90812H70.8182C71.8351 8.90812 72.6599 9.5312 72.6599 10.2996V31.2123C72.6599 31.9816 73.4866 32.6063 74.5049 32.6063C75.5232 32.6063 76.3498 31.9816 76.3498 31.2123V10.2996C76.3498 7.99092 73.8738 6.12012 70.8182 6.12012H70.8113C70.0931 6.12012 69.4051 6.22336 68.7761 6.41169C68.1376 4.63691 65.9904 3.33203 63.4389 3.33203H63.4313C60.3757 3.33203 57.8997 5.20283 57.8997 7.51151V7.75119C57.3243 7.59764 56.7042 7.5141 56.0587 7.5141H56.0512C52.9956 7.5141 50.5195 9.38489 50.5195 11.693L50.5193 11.9332Z" fill="url(#paint3_linear_3176_4257)"/>
<path fill-rule="evenodd" clip-rule="evenodd" d="M20.9985 10.3022V27.0299C20.9985 27.7993 21.8246 28.4239 22.8435 28.4239C23.8618 28.4239 24.6878 27.7993 24.6878 27.0299V10.3022C24.6878 9.53282 23.8618 8.9082 22.8435 8.9082C21.8245 8.9082 20.9985 9.53283 20.9985 10.3022Z" fill="url(#paint4_linear_3176_4257)"/>
<path fill-rule="evenodd" clip-rule="evenodd" d="M65.2798 10.3022V27.0299C65.2798 27.7993 66.1065 28.4239 67.1248 28.4239C68.1431 28.4239 68.9698 27.7993 68.9698 27.0299V10.3022C68.9698 9.53282 68.1431 8.9082 67.1248 8.9082C66.1065 8.9082 65.2798 9.53283 65.2798 10.3022Z" fill="url(#paint5_linear_3176_4257)"/>
<path fill-rule="evenodd" clip-rule="evenodd" d="M28.3799 10.3022V27.0299C28.3799 27.7993 29.2059 28.4239 30.2249 28.4239C31.2432 28.4239 32.0699 27.7993 32.0699 27.0299V10.3022C32.0699 9.53282 31.2432 8.9082 30.2249 8.9082C29.2059 8.9082 28.3799 9.53283 28.3799 10.3022Z" fill="url(#paint6_linear_3176_4257)"/>
<path fill-rule="evenodd" clip-rule="evenodd" d="M57.8989 10.3022V27.0299C57.8989 27.7993 58.7256 28.4239 59.7439 28.4239C60.7622 28.4239 61.5889 27.7993 61.5889 27.0299V10.3022C61.5889 9.53282 60.7622 8.9082 59.7439 8.9082C58.7256 8.9082 57.8989 9.53283 57.8989 10.3022Z" fill="url(#paint7_linear_3176_4257)"/>
<path fill-rule="evenodd" clip-rule="evenodd" d="M35.7593 15.8774V27.0295C35.7593 27.7984 36.586 28.423 37.6043 28.423C38.6233 28.423 39.4493 27.7984 39.4493 27.0295V15.8774C39.4493 15.1075 38.6232 14.4834 37.6043 14.4834C36.586 14.4834 35.7593 15.1075 35.7593 15.8774Z" fill="url(#paint8_linear_3176_4257)"/>
<path fill-rule="evenodd" clip-rule="evenodd" d="M50.5195 15.8774V27.0295C50.5195 27.7984 51.3462 28.423 52.3645 28.423C53.3828 28.423 54.2095 27.7984 54.2095 27.0295V15.8774C54.2095 15.1075 53.3828 14.4834 52.3645 14.4834C51.3462 14.4834 50.5195 15.1075 50.5195 15.8774Z" fill="url(#paint9_linear_3176_4257)"/>
<path fill-rule="evenodd" clip-rule="evenodd" d="M26.5202 56.3032H15.4651C14.4461 56.3032 13.6201 56.9279 13.6201 57.6972V60.4852C13.6201 61.5949 14.2031 62.6584 15.2413 63.4419C16.2788 64.2268 17.6864 64.6673 19.1552 64.6673H41.3107C42.329 64.6673 43.1557 64.0432 43.1557 63.2733C43.1557 62.5039 42.329 61.8793 41.3107 61.8793H19.1552C18.6657 61.8793 18.1953 61.733 17.8506 61.471C17.5038 61.2106 17.3102 60.8547 17.3102 60.4853V59.0913H26.5203C27.5386 59.0913 28.3653 58.4672 28.3653 57.6973C28.3653 56.9279 27.5385 56.3032 26.5202 56.3032Z" fill="url(#paint10_linear_3176_4257)"/>
<path fill-rule="evenodd" clip-rule="evenodd" d="M63.4199 59.0923H72.6594V60.4863C72.6594 60.8556 72.4657 61.2115 72.119 61.472C71.7736 61.734 71.3032 61.8803 70.8143 61.8803H48.6888C47.6704 61.8803 46.8438 62.5049 46.8438 63.2743C46.8438 64.0442 47.6705 64.6683 48.6888 64.6683H70.8143C72.2831 64.6683 73.6907 64.2278 74.7276 63.4429C75.7665 62.6595 76.3494 61.596 76.3494 60.4862V57.6982C76.3494 56.9288 75.5227 56.3042 74.5044 56.3042H63.4199C62.4009 56.3042 61.5749 56.9288 61.5749 57.6982C61.5749 58.4681 62.401 59.0923 63.4199 59.0923Z" fill="url(#paint11_linear_3176_4257)"/>
<path fill-rule="evenodd" clip-rule="evenodd" d="M64.2761 45.0048C64.9003 44.7682 65.2951 44.2857 65.2951 43.7571C65.2951 43.2289 64.9003 42.7464 64.2761 42.5099L45.8261 35.5399C45.305 35.3448 44.6959 35.3448 44.1741 35.5399L25.7241 42.5099C25.0999 42.7464 24.7051 43.2289 24.7051 43.7571C24.7051 44.2857 25.0999 44.7682 25.7241 45.0048L44.1741 51.9744C44.6959 52.1699 45.305 52.1699 45.8261 51.9744L64.2761 45.0048ZM59.3247 43.7571L45 49.1692L30.6759 43.7571L45 38.3455L59.3247 43.7571Z" fill="url(#paint12_linear_3176_4257)"/>
<path fill-rule="evenodd" clip-rule="evenodd" d="M32.0854 46.5454V54.9095C32.0854 57.2198 34.5629 59.0915 37.6205 59.0915H52.3806C55.4376 59.0915 57.9156 57.2196 57.9156 54.9095V46.5454C57.9156 45.776 57.0889 45.1514 56.0706 45.1514C55.0516 45.1514 54.2256 45.776 54.2256 46.5454V54.9095C54.2256 55.6794 53.3989 56.3035 52.3806 56.3035H37.6205C36.6015 56.3035 35.7754 55.6794 35.7754 54.9095V46.5454C35.7754 45.776 34.9487 45.1514 33.9304 45.1514C32.9115 45.1514 32.0854 45.776 32.0854 46.5454Z" fill="url(#paint13_linear_3176_4257)"/>
<path fill-rule="evenodd" clip-rule="evenodd" d="M24.7041 43.7578V49.3332C24.7041 50.1031 25.5308 50.7272 26.5491 50.7272C27.5674 50.7272 28.3941 50.1031 28.3941 49.3332V43.7578C28.3941 42.9879 27.5674 42.3638 26.5491 42.3638C25.5308 42.3638 24.7041 42.9879 24.7041 43.7578Z" fill="url(#paint14_linear_3176_4257)"/>
<defs>
<linearGradient id="paint0_linear_3176_4257" x1="4.40918" y1="26.9331" x2="33.4278" y2="45.232" gradientUnits="userSpaceOnUse">
<stop stop-color="#FDAB76"/>
<stop offset="1" stop-color="#FA541C"/>
</linearGradient>
<linearGradient id="paint1_linear_3176_4257" x1="13.6201" y1="3.33105" x2="42.663" y2="36.2786" gradientUnits="userSpaceOnUse">
<stop stop-color="#FDAB76"/>
<stop offset="1" stop-color="#FA541C"/>
</linearGradient>
<linearGradient id="paint2_linear_3176_4257" x1="65.2788" y1="26.9331" x2="94.2979" y2="45.2332" gradientUnits="userSpaceOnUse">
<stop stop-color="#FDAB76"/>
<stop offset="1" stop-color="#FA541C"/>
</linearGradient>
<linearGradient id="paint3_linear_3176_4257" x1="43.1392" y1="3.33203" x2="72.1819" y2="36.2801" gradientUnits="userSpaceOnUse">
<stop stop-color="#FDAB76"/>
<stop offset="1" stop-color="#FA541C"/>
</linearGradient>
<linearGradient id="paint4_linear_3176_4257" x1="20.9985" y1="8.9082" x2="28.1225" y2="10.2549" gradientUnits="userSpaceOnUse">
<stop stop-color="#FDAB76"/>
<stop offset="1" stop-color="#FA541C"/>
</linearGradient>
<linearGradient id="paint5_linear_3176_4257" x1="65.2798" y1="8.9082" x2="72.405" y2="10.2554" gradientUnits="userSpaceOnUse">
<stop stop-color="#FDAB76"/>
<stop offset="1" stop-color="#FA541C"/>
</linearGradient>
<linearGradient id="paint6_linear_3176_4257" x1="28.3799" y1="8.9082" x2="35.5051" y2="10.2554" gradientUnits="userSpaceOnUse">
<stop stop-color="#FDAB76"/>
<stop offset="1" stop-color="#FA541C"/>
</linearGradient>
<linearGradient id="paint7_linear_3176_4257" x1="57.8989" y1="8.9082" x2="65.0242" y2="10.2554" gradientUnits="userSpaceOnUse">
<stop stop-color="#FDAB76"/>
<stop offset="1" stop-color="#FA541C"/>
</linearGradient>
<linearGradient id="paint8_linear_3176_4257" x1="35.7593" y1="14.4834" x2="42.656" y2="16.3091" gradientUnits="userSpaceOnUse">
<stop stop-color="#FDAB76"/>
<stop offset="1" stop-color="#FA541C"/>
</linearGradient>
<linearGradient id="paint9_linear_3176_4257" x1="50.5195" y1="14.4834" x2="57.4163" y2="16.3091" gradientUnits="userSpaceOnUse">
<stop stop-color="#FDAB76"/>
<stop offset="1" stop-color="#FA541C"/>
</linearGradient>
<linearGradient id="paint10_linear_3176_4257" x1="13.6201" y1="56.3032" x2="18.0056" y2="71.7895" gradientUnits="userSpaceOnUse">
<stop stop-color="#FDAB76"/>
<stop offset="1" stop-color="#FA541C"/>
</linearGradient>
<linearGradient id="paint11_linear_3176_4257" x1="46.8438" y1="56.3042" x2="51.233" y2="71.7881" gradientUnits="userSpaceOnUse">
<stop stop-color="#FDAB76"/>
<stop offset="1" stop-color="#FA541C"/>
</linearGradient>
<linearGradient id="paint12_linear_3176_4257" x1="24.7051" y1="35.3936" x2="36.4906" y2="63.9916" gradientUnits="userSpaceOnUse">
<stop stop-color="#FDAB76"/>
<stop offset="1" stop-color="#FA541C"/>
</linearGradient>
<linearGradient id="paint13_linear_3176_4257" x1="32.0854" y1="45.1514" x2="43.7381" y2="66.7429" gradientUnits="userSpaceOnUse">
<stop stop-color="#FDAB76"/>
<stop offset="1" stop-color="#FA541C"/>
</linearGradient>
<linearGradient id="paint14_linear_3176_4257" x1="24.7041" y1="42.3638" x2="30.8816" y2="45.0893" gradientUnits="userSpaceOnUse">
<stop stop-color="#FDAB76"/>
<stop offset="1" stop-color="#FA541C"/>
</linearGradient>
</defs>
</svg>
