<svg width="65" height="64" viewBox="0 0 65 64" fill="none" xmlns="http://www.w3.org/2000/svg">
<g clip-path="url(#clip0_3176_4232)">
<path d="M55.8864 46.9332C56.2252 45.1349 56.2165 43.2883 55.8608 41.4932L60.7462 29.7034C60.7467 29.6956 60.7467 29.6877 60.7462 29.6799C61.5378 27.5125 62.698 25.4982 64.1755 23.7258C64.5431 23.3375 64.691 22.7904 64.5691 22.2698L62.5659 13.6191C62.5421 13.5287 62.5062 13.4418 62.4592 13.361C62.4507 13.345 62.4475 13.3258 62.439 13.3108C62.4304 13.2959 62.3931 13.2596 62.3718 13.2319C62.3281 13.168 62.2777 13.109 62.2214 13.0559C62.1843 13.0298 62.1454 13.0063 62.1051 12.9855C62.0531 12.9472 61.9978 12.9137 61.9398 12.8852C61.8594 12.8549 61.7755 12.8344 61.6902 12.8244C61.6656 12.8244 61.6443 12.8084 61.6198 12.8063C61.4153 12.7927 61.2113 12.8382 61.032 12.9375C61.016 12.946 60.9968 12.9492 60.9808 12.9588H60.9702L53.4384 17.6596C52.9823 17.9421 52.6992 18.4353 52.6854 18.9716C52.4761 21.2747 51.8695 23.5242 50.8923 25.6202V25.6319L48.4507 31.5338C47.2523 30.8967 45.9694 30.4334 44.6406 30.1578C45.1436 26.6857 45.3285 23.1749 45.1931 19.6692C47.1787 17.2869 48.1316 14.2107 47.8406 11.1231C47.1739 4.90657 41.5558 0.416965 41.3158 0.228165C40.955 -0.0558963 40.453 -0.0772594 40.0695 0.17513C39.6859 0.42752 39.5069 0.897027 39.6251 1.3407C40.1744 3.40363 39.6987 5.5807 35.6411 10.0575C33.818 11.8178 33.2402 14.5056 34.1787 16.8596C34.5375 17.76 35.0516 18.5904 35.6976 19.313C35.4395 20.961 35.2368 22.5215 35.0971 24.0415C34.8565 26.5555 34.7945 29.0835 34.9115 31.6063C33.9599 32.1222 33.069 32.743 32.2555 33.457L27.0822 11.3343C27.0822 11.3119 27.0608 11.2959 27.0544 11.2756C27.0371 11.2045 27.012 11.1355 26.9798 11.0698L21.6955 1.31083C21.1667 0.334057 20.0495 -0.167879 18.968 0.0854137C17.8865 0.338706 17.1084 1.28454 17.0683 2.39457L16.6672 13.4826C16.6675 13.5626 16.6764 13.6423 16.6939 13.7204C16.6939 13.7375 16.6939 13.7524 16.6939 13.7684L21.9718 36.2932C21.1392 36.33 20.3127 36.4533 19.5056 36.6612L13.6998 22.6399C13.2342 21.5681 11.9994 21.0623 10.9158 21.4996L2.04216 25.1732C0.956155 25.6266 0.440052 26.8718 0.886963 27.9604L8.7611 46.9556C4.14617 47.1979 0.563947 51.072 0.683062 55.6917C0.802177 60.3115 4.57928 63.9957 9.20056 63.9999H56.1339C59.1826 63.9557 61.9761 62.2884 63.4621 59.6261C64.9482 56.9637 64.901 53.7109 63.3384 51.0927C61.7758 48.4746 58.9351 46.889 55.8864 46.9332ZM54.7995 19.3236L59.271 16.5332L57.688 20.3562C57.4624 20.9005 57.7208 21.5247 58.2651 21.7503C58.8094 21.9759 59.4336 21.7176 59.6592 21.1732L61.2422 17.3503L62.4272 22.4842C61.1593 24.031 60.1178 25.7502 59.3339 27.5903C58.2218 28.1058 56.9448 28.1326 55.8121 27.6641C54.6794 27.1956 53.7943 26.2746 53.3712 25.1242C54.1204 23.2683 54.6013 21.3152 54.7995 19.3236ZM52.3462 27.698C53.0518 28.5608 53.9676 29.2275 55.0054 29.634C55.8303 29.9888 56.7176 30.1759 57.6155 30.1844C57.8315 30.1836 58.0474 30.1705 58.2619 30.145L54.8582 38.3583C53.839 36.1112 52.2623 34.1618 50.2779 32.6954L52.3462 27.698ZM37.7328 20.0799L43.0918 20.4074C43.1248 21.4036 43.1131 22.434 43.08 23.4804C41.2948 23.608 39.5007 23.5213 37.736 23.2223C37.6016 23.2031 37.4704 23.1882 37.3371 23.17C37.4438 22.1652 37.5739 21.1476 37.7307 20.0799H37.7328ZM37.224 11.49C40.056 8.36577 41.5238 5.96257 41.8651 3.70337C43.9007 5.79781 45.2445 8.46662 45.7147 11.3492C45.9387 13.8587 45.1628 16.3551 43.5558 18.2954C41.4487 18.1674 39.3648 18.0394 37.304 17.9114C36.4185 17.0836 35.9091 15.9303 35.8936 14.7182C35.8781 13.5061 36.3579 12.3402 37.2219 11.49H37.224ZM37.143 25.2959L37.4523 25.3364C38.8268 25.549 40.2142 25.667 41.6048 25.6895C42.0464 25.6895 42.5115 25.6543 42.9776 25.618C42.8806 26.9908 42.7216 28.4244 42.52 29.906C42.2566 29.8922 41.9984 29.8666 41.7339 29.8666C40.1235 29.8695 38.5251 30.1446 37.0064 30.6804C36.9572 28.8845 37.0021 27.0872 37.1408 25.2959H37.143ZM28.8923 37.7695L25.8406 24.77C25.6979 24.2061 25.1296 23.8604 24.5632 23.9931C23.9968 24.1257 23.6412 24.6878 23.7638 25.2564L26.5062 36.9567C25.7522 36.687 24.9732 36.493 24.1808 36.3775L19.4992 16.3988C20.1551 16.6974 20.8672 16.8524 21.5878 16.8532C21.655 16.8532 21.7264 16.8436 21.7947 16.8404L22.5488 20.0607C22.6301 20.4376 22.9085 20.7414 23.2769 20.8551C23.6453 20.9688 24.0464 20.8749 24.3261 20.6094C24.6057 20.3439 24.7202 19.9481 24.6256 19.5743L23.8704 16.3519C24.5941 16.0315 25.2325 15.5456 25.7339 14.9332L30.4934 35.2842C29.8753 36.0551 29.3387 36.888 28.8923 37.7695ZM22.375 14.6228C21.0108 14.8874 19.6179 14.3297 18.8134 13.1967L18.9488 9.4399C19.32 9.50922 19.6966 9.54492 20.0742 9.54657C20.4388 9.54809 20.8025 9.50765 21.1579 9.42603C21.8775 9.23705 22.5506 8.90232 23.1355 8.44257L24.9318 11.7578C24.7177 13.1333 23.7171 14.2554 22.375 14.625V14.6228ZM19.4534 2.16203C19.5987 2.12838 19.7486 2.19551 19.8203 2.3263L22.1072 6.55563C21.6947 6.92885 21.2021 7.20253 20.6672 7.35563C20.1206 7.45597 19.5582 7.42933 19.0235 7.27777L19.1974 2.47137C19.2032 2.32232 19.308 2.1956 19.4534 2.16203ZM11.7339 23.4666L12.5488 25.4356L8.60216 27.0698C8.13428 27.2662 7.8696 27.7652 7.96927 28.2627C8.06894 28.7603 8.50537 29.1188 9.01283 29.1199C9.15297 29.1196 9.29172 29.0921 9.42136 29.0388L13.368 27.4036L14.184 29.3748L12.2096 30.193C11.7391 30.3877 11.4718 30.8879 11.5715 31.3873C11.6712 31.8868 12.11 32.2461 12.6192 32.2452C12.759 32.2447 12.8974 32.2172 13.0267 32.1642L15.0011 31.346L15.8171 33.3172L11.8672 34.9546C11.3967 35.1493 11.1294 35.6495 11.2291 36.1489C11.3288 36.6484 11.7676 37.0077 12.2768 37.0068C12.4166 37.0064 12.555 36.9789 12.6843 36.9258L16.631 35.2916L17.4939 37.3748C14.018 38.9614 11.4692 42.0636 10.5872 45.7812L2.85603 27.1402L11.7339 23.4666ZM56.1339 61.8666H9.20056C5.66594 61.8666 2.80056 59.0012 2.80056 55.4666C2.80056 51.9319 5.66594 49.0666 9.20056 49.0666C9.81862 49.0645 10.4336 49.1536 11.0256 49.3311C11.3455 49.4277 11.6921 49.3689 11.9621 49.1722C12.2322 48.9754 12.3945 48.6635 12.4006 48.3295C12.4764 44.528 14.674 41.0889 18.0919 39.4229C21.5098 37.7569 25.5726 38.1444 28.6139 40.4266C28.8826 40.6266 29.2298 40.6887 29.5512 40.5944C29.8727 40.5 30.1311 40.2601 30.2491 39.9466C32.333 34.3926 38.0927 31.1257 43.929 32.1872C49.7653 33.2488 54.0057 38.3345 54.0006 44.2666C54.0026 45.4864 53.821 46.6997 53.4619 47.8655C53.3498 48.2282 53.4389 48.6232 53.6959 48.9026C53.9529 49.182 54.3391 49.3038 54.7099 49.2223C55.1776 49.1194 55.655 49.0672 56.1339 49.0666C59.6685 49.0666 62.5339 51.9319 62.5339 55.4666C62.5339 59.0012 59.6685 61.8666 56.1339 61.8666Z" fill="url(#paint0_linear_3176_4232)"/>
<path d="M41.9312 16.7467C42.266 16.7479 42.5819 16.5919 42.7845 16.3253C44.1162 14.5229 44.6308 12.2446 44.2032 10.0448C44.1122 9.66865 43.8246 9.37129 43.4517 9.26776C43.0789 9.16424 42.6792 9.27078 42.4073 9.54618C42.1354 9.82157 42.034 10.2226 42.1424 10.5941C42.3977 12.1573 42.0167 13.7576 41.0842 15.0379C40.8418 15.3611 40.8028 15.7935 40.9835 16.1549C41.1642 16.5162 41.5335 16.7445 41.9376 16.7445L41.9312 16.7467Z" fill="url(#paint1_linear_3176_4232)"/>
<path d="M40.5286 49.0667C39.7354 49.0692 38.9531 49.2515 38.2406 49.6001C36.3218 46.9744 32.7389 46.2052 29.9114 47.8119C27.0839 49.4187 25.911 52.8904 27.1846 55.8827C27.3522 56.276 27.7384 56.5313 28.1659 56.5313C28.3097 56.5316 28.452 56.5026 28.5841 56.4459C28.8443 56.335 29.0499 56.1253 29.1555 55.8629C29.2611 55.6004 29.2582 55.3067 29.1473 55.0465C28.9151 54.5052 28.7953 53.9224 28.7953 53.3334C28.7953 50.977 30.7055 49.0667 33.0619 49.0667C34.7169 49.0585 36.2242 50.0175 36.9179 51.5201C36.941 51.5548 36.9659 51.5883 36.9926 51.6203C37.0095 51.6569 37.0283 51.6925 37.0491 51.727C37.0683 51.7505 37.0961 51.7611 37.1174 51.7835C37.1674 51.8355 37.2229 51.882 37.2827 51.9222C37.336 51.9632 37.3932 51.999 37.4534 52.0289C37.5154 52.0548 37.5797 52.0748 37.6454 52.0886C37.711 52.1058 37.7782 52.1162 37.8459 52.1195C37.9845 52.1184 38.122 52.0954 38.2534 52.0513C38.2818 52.046 38.31 52.0393 38.3377 52.031C38.3723 52.0086 38.4054 51.984 38.4369 51.9574C38.4753 51.9403 38.5127 51.9211 38.5489 51.8998C39.1092 51.4467 39.808 51.1997 40.5286 51.2001C41.7758 51.2021 42.9082 51.9286 43.4299 53.0614C43.6744 53.5975 44.3072 53.8339 44.8433 53.5894C45.3794 53.3449 45.6157 52.7122 45.3713 52.1761C44.5027 50.2829 42.6115 49.0686 40.5286 49.0667Z" fill="url(#paint2_linear_3176_4232)"/>
<path d="M19.5302 41.6543C19.3692 41.7065 15.6006 43.01 15.6006 46.9332C15.6006 47.5223 16.0782 47.9999 16.6673 47.9999C17.2564 47.9999 17.734 47.5223 17.734 46.9332C17.821 45.4452 18.8001 44.158 20.2108 43.6767C20.7704 43.4888 21.0718 42.8827 20.8838 42.3231C20.6959 41.7634 20.0899 41.4621 19.5302 41.65V41.6543Z" fill="url(#paint3_linear_3176_4232)"/>
<path d="M34.5414 40.5014C34.6261 40.5229 34.7132 40.5336 34.8006 40.5334C35.2895 40.5329 35.7154 40.2001 35.8342 39.7259C36.3252 37.7341 38.0885 36.3172 40.1393 36.2667C40.7284 36.2652 41.2048 35.7865 41.2033 35.1974C41.2018 34.6083 40.7231 34.1319 40.134 34.1334C37.1022 34.1736 34.4822 36.2613 33.766 39.2075C33.6228 39.7789 33.97 40.3582 34.5414 40.5014Z" fill="url(#paint4_linear_3176_4232)"/>
</g>
<defs>
<linearGradient id="paint0_linear_3176_4232" x1="0.680176" y1="-0.000488281" x2="64.6805" y2="63.9303" gradientUnits="userSpaceOnUse">
<stop stop-color="#FDAB76"/>
<stop offset="1" stop-color="#FA541C"/>
</linearGradient>
<linearGradient id="paint1_linear_3176_4232" x1="0.680176" y1="-0.000488281" x2="64.6805" y2="63.9303" gradientUnits="userSpaceOnUse">
<stop stop-color="#FDAB76"/>
<stop offset="1" stop-color="#FA541C"/>
</linearGradient>
<linearGradient id="paint2_linear_3176_4232" x1="0.680176" y1="-0.000488281" x2="64.6805" y2="63.9303" gradientUnits="userSpaceOnUse">
<stop stop-color="#FDAB76"/>
<stop offset="1" stop-color="#FA541C"/>
</linearGradient>
<linearGradient id="paint3_linear_3176_4232" x1="0.680176" y1="-0.000488281" x2="64.6805" y2="63.9303" gradientUnits="userSpaceOnUse">
<stop stop-color="#FDAB76"/>
<stop offset="1" stop-color="#FA541C"/>
</linearGradient>
<linearGradient id="paint4_linear_3176_4232" x1="0.680176" y1="-0.000488281" x2="64.6805" y2="63.9303" gradientUnits="userSpaceOnUse">
<stop stop-color="#FDAB76"/>
<stop offset="1" stop-color="#FA541C"/>
</linearGradient>
<clipPath id="clip0_3176_4232">
<rect width="64" height="64" fill="white" transform="translate(0.666992)"/>
</clipPath>
</defs>
</svg>
