<svg width="64" height="64" viewBox="0 0 64 64" fill="none" xmlns="http://www.w3.org/2000/svg">
<path d="M21.1765 14.2875H25.1125C25.4411 14.2875 25.7488 14.1229 25.9314 13.8495L26.9587 12.308L29.1526 16.6957C29.3196 17.0292 29.6599 17.2397 30.0325 17.2397C30.4055 17.2397 30.7454 17.0292 30.9129 16.6957L33.1067 12.308L34.1341 13.8495C34.3167 14.1234 34.6238 14.2875 34.9525 14.2875H46.7606C47.3045 14.2875 47.7445 13.847 47.7445 13.3036C47.7445 12.7601 47.3045 12.3197 46.7606 12.3197H35.4793L33.8036 9.80606C33.6083 9.51407 33.2865 9.34659 32.9232 9.37002C32.5736 9.39151 32.2611 9.59805 32.1044 9.91201L30.0326 14.0555L27.9609 9.91151C27.8041 9.59755 27.4921 9.391 27.142 9.36952C26.7748 9.34511 26.4569 9.51356 26.2616 9.80556L24.5859 12.3197H21.1768C20.6328 12.3197 20.1929 12.7601 20.1929 13.3036C20.1929 13.847 20.6328 14.2875 21.1768 14.2875H21.1765Z" fill="url(#paint0_linear_3176_4247)"/>
<path d="M61.1115 38.0887C60.8542 37.9042 60.5246 37.8514 60.2248 37.954L54.321 39.9217C53.9192 40.0555 53.6482 40.4315 53.6482 40.8553V41.8392H49.7121V38.8871C49.7121 38.3431 49.2722 37.9032 48.7283 37.9032H29.0483C28.5043 37.9032 28.0644 38.3431 28.0644 38.8871V46.2201C26.8173 45.5638 25.0624 44.3743 24.5839 42.6986C24.226 41.4471 24.6625 40.0403 25.8807 38.5185C27.1405 36.9423 27.6459 35.2812 27.3817 33.579C27.1591 32.1435 26.414 30.9358 25.6507 30.0311H52.6645C53.2085 30.0311 53.6484 29.5907 53.6484 29.0472V23.1434C53.6484 22.6 53.2085 22.1596 52.6645 22.1596L24.1282 22.1591C24.1282 21.6156 23.6883 21.1752 23.1444 21.1752H18.2245V15.2714C18.2245 11.4731 15.1341 8.3833 11.3364 8.3833H9.36811C5.57023 8.3833 2.47998 11.4732 2.47998 15.2714V36.9189C2.47998 40.7168 5.57036 43.8071 9.36811 43.8071H11.3359C15.1337 43.8071 18.224 40.7167 18.224 36.9189V31.0152H23.1439C23.3577 31.0152 23.5447 30.9327 23.7059 30.8174C24.4178 31.5371 25.244 32.6158 25.4387 33.8897C25.6135 35.0371 25.2561 36.1489 24.343 37.2886C22.7019 39.3403 22.1463 41.3447 22.6932 43.2466C23.5203 46.1269 26.6765 47.7954 28.0643 48.4043V54.6308C28.0643 55.1747 28.5042 55.6147 29.0482 55.6147H48.7282C49.2721 55.6147 49.7121 55.1747 49.7121 54.6308V51.6787H53.6481V52.6626C53.6481 53.0864 53.9191 53.4619 54.3209 53.5957L60.2247 55.5634C60.3262 55.5986 60.4312 55.6147 60.5362 55.6147C60.7398 55.6147 60.9415 55.5512 61.1119 55.4291C61.3682 55.2441 61.5201 54.9472 61.5201 54.6308V38.887C61.5201 38.5711 61.3683 38.2743 61.1115 38.0887ZM8.91522 10.3962L4.49434 14.8171C4.71309 12.4709 6.56909 10.615 8.91522 10.3962ZM4.44847 17.6457L11.7062 10.388C12.5641 10.4534 13.3658 10.72 14.0451 11.1702L4.44847 20.7673V17.6457ZM4.44847 29.0466H8.96122L4.44847 33.5594V29.0466ZM4.44847 36.9187V36.3421L11.7438 29.0467H15.8488L5.26822 39.6277C4.75259 38.8499 4.44847 37.9197 4.44847 36.9187ZM16.2566 36.9187C16.2566 39.6316 14.0491 41.8386 11.3367 41.8386H11.2522L16.2566 36.8342L16.2566 36.9187ZM16.2566 34.0511L8.67259 41.6351C8.63548 41.6722 8.61937 41.7191 8.58959 41.7601C7.88646 41.6473 7.23021 41.3973 6.65946 41.0194L16.2566 31.4223L16.2566 34.0511ZM16.2566 27.0785H4.44847V25.1107H16.2566V27.0785ZM16.2566 22.1586V23.1425H11.7438L16.2566 18.6302V22.1586ZM16.2566 15.8471L8.96122 23.1425H4.85622L15.4372 12.5615C15.9524 13.3398 16.2566 14.2695 16.2566 15.271L16.2566 15.8471ZM22.1603 29.0471H18.2243V23.1434H22.1603V29.0471ZM24.1286 28.0632V24.1272H51.6811V28.0632H24.1286ZM47.7448 42.8232V53.6475H30.0323V39.8712H47.7448V42.8232ZM53.6491 49.7113H49.7131V43.8076H53.6491V49.7113ZM59.5529 53.2661L55.6168 51.9546V41.5645L59.5529 40.253V53.2661Z" fill="url(#paint1_linear_3176_4247)"/>
<path d="M32.9839 43.8074C33.249 43.8074 33.4951 43.7083 33.6826 43.5223C33.771 43.4232 33.8399 43.3158 33.8892 43.1976C33.9478 43.0794 33.9678 42.9515 33.9678 42.8236C33.9678 42.6956 33.9478 42.5682 33.8892 42.4495C33.8398 42.3319 33.771 42.223 33.6826 42.1248C33.4561 41.8983 33.1118 41.7903 32.7871 41.8587C32.7285 41.8694 32.669 41.8885 32.6104 41.9183C32.5503 41.9378 32.4917 41.9676 32.4321 42.0067C32.3833 42.0364 32.334 42.0853 32.2852 42.1248C32.1968 42.223 32.1274 42.3216 32.0786 42.4495C32.019 42.5682 32 42.6956 32 42.8236C32 43.0887 32.0981 43.3348 32.2852 43.5223C32.4717 43.7088 32.7178 43.8074 32.9839 43.8074Z" fill="url(#paint2_linear_3176_4247)"/>
<path d="M32.9839 47.7437H38.8876C39.4316 47.7437 39.8715 47.3037 39.8715 46.7598C39.8715 46.2158 39.4316 45.7759 38.8876 45.7759H32.9839C32.4399 45.7759 32 46.2158 32 46.7598C32 47.3037 32.4399 47.7437 32.9839 47.7437Z" fill="url(#paint3_linear_3176_4247)"/>
<defs>
<linearGradient id="paint0_linear_3176_4247" x1="20.1929" y1="9.36719" x2="24.3522" y2="23.9237" gradientUnits="userSpaceOnUse">
<stop stop-color="#FDAB76"/>
<stop offset="1" stop-color="#FA541C"/>
</linearGradient>
<linearGradient id="paint1_linear_3176_4247" x1="2.47998" y1="8.3833" x2="48.5592" y2="65.9832" gradientUnits="userSpaceOnUse">
<stop stop-color="#FDAB76"/>
<stop offset="1" stop-color="#FA541C"/>
</linearGradient>
<linearGradient id="paint2_linear_3176_4247" x1="32" y1="41.8384" x2="33.9691" y2="43.8062" gradientUnits="userSpaceOnUse">
<stop stop-color="#FDAB76"/>
<stop offset="1" stop-color="#FA541C"/>
</linearGradient>
<linearGradient id="paint3_linear_3176_4247" x1="32" y1="45.7759" x2="32.926" y2="49.48" gradientUnits="userSpaceOnUse">
<stop stop-color="#FDAB76"/>
<stop offset="1" stop-color="#FA541C"/>
</linearGradient>
</defs>
</svg>
