<svg width="64" height="64" viewBox="0 0 64 64" fill="none" xmlns="http://www.w3.org/2000/svg">
<g clip-path="url(#clip0_3176_4238)">
<path d="M55.0047 0H52.2531C51.0435 0 51.0435 1.87527 52.2531 1.87527H55.0047C57.8464 1.87527 60.1583 4.17885 60.1583 7.01026V28.7099C60.1583 31.5414 57.8465 33.845 55.0047 33.845H51.8839C51.678 33.845 51.4778 33.9128 51.3142 34.0379L45.5876 38.4183V34.7827C45.5876 34.2648 45.1679 33.845 44.65 33.845H33.2383C32.3038 33.845 31.4057 33.5984 30.6136 33.1294V22.6039C30.6136 20.6324 29.6094 18.8905 28.0846 17.86V7.01026C28.0846 4.17885 30.3965 1.87527 33.2383 1.87527H46.3772C47.5866 1.87527 47.5866 0 46.3772 0H33.2383C29.3625 0 26.2093 3.14483 26.2093 7.01026V17.0358C25.78 16.9333 25.3327 16.8774 24.8724 16.8774H7.70788C4.54229 16.8774 1.9668 19.4463 1.9668 22.6039V24.6286C1.9668 25.838 3.84207 25.838 3.84207 24.6286V22.6039C3.84207 20.4803 5.57619 18.7527 7.70788 18.7527H24.8725C27.0042 18.7527 28.7384 20.4803 28.7384 22.6039V33.5027C28.7272 33.5855 28.7277 33.6689 28.7384 33.751V39.7159C28.7384 39.8338 28.7313 39.9512 28.7207 40.0679H26.787C24.6563 40.0679 22.8801 41.6058 22.5118 43.6269C22.4265 43.6591 22.3446 43.7039 22.2687 43.7625L18.075 47.0005V44.5047C18.075 43.9869 17.6553 43.567 17.1374 43.567H7.70788C5.57619 43.567 3.84207 41.8394 3.84207 39.7159V30.2544C3.84207 29.0449 1.9668 29.0449 1.9668 30.2544V39.716C1.9668 42.8736 4.54229 45.4424 7.70788 45.4424H16.1999V48.9092C16.1999 49.6613 17.1131 50.1125 17.7106 49.6514L22.4406 45.9993V56.5477C22.4406 58.9386 24.3905 60.8837 26.7871 60.8837H32.5411V63.0716C32.5411 63.8235 33.4543 64.2752 34.0517 63.8139L37.8467 60.8837H38.9679C41.3645 60.8837 43.3144 58.9385 43.3144 56.5477V54.8829C43.3144 53.6735 41.4391 53.6735 41.4391 54.8829V56.5477C41.4391 57.9046 40.3306 59.0084 38.9679 59.0084H37.5268C37.3194 59.0084 37.1179 59.0772 36.9539 59.2038L34.4162 61.163V59.9459C34.4162 59.4281 33.9966 59.0083 33.4786 59.0083H26.787C25.4244 59.0083 24.3158 57.9044 24.3158 56.5476V44.404C24.3158 43.0471 25.4243 41.9433 26.787 41.9433H38.9679C40.3305 41.9433 41.4391 43.0472 41.4391 44.404V49.0071C41.4391 50.2165 43.3144 50.2165 43.3144 49.0071V44.4042C43.3144 42.0132 41.3645 40.0682 38.9679 40.0682H30.6029C30.6101 39.951 30.6137 35.2152 30.6137 35.2152C31.4404 35.5476 32.3268 35.7204 33.2384 35.7204H43.7125V40.3161C43.7125 41.0663 44.6218 41.518 45.2198 41.0608L52.2016 35.7204H55.0048C58.8805 35.7204 62.0337 32.5756 62.0337 28.71V7.01026C62.0336 3.14483 58.8804 0 55.0047 0V0Z" fill="url(#paint0_linear_3176_4238)"/>
<path d="M46.4645 6.92775C45.274 6.62383 44.0608 7.56447 44.0608 8.79465C44.0608 10.1387 43.571 11.434 42.6822 12.4413L40.0989 15.3646C39.9316 15.1079 39.6426 14.938 39.3134 14.938H34.2702C33.7522 14.938 33.3325 15.3578 33.3325 15.8757V27.2229C33.3325 27.7408 33.7522 28.1606 34.2702 28.1606H39.3134C39.6923 28.1606 40.0179 27.9354 40.1658 27.6121C41.1868 28.236 42.37 28.5733 43.5738 28.5733H52.4865C53.8485 28.5733 54.972 27.3915 54.9081 26.033C54.8798 25.4314 54.9108 17.3536 54.9108 17.1742C54.9108 15.8375 53.8232 14.7499 52.4893 14.7499L47.8545 14.736L48.0464 14.2816C48.9234 12.2046 48.779 9.79629 47.6606 7.83888C47.3996 7.38157 46.9746 7.05815 46.4645 6.92775C46.9746 7.05815 45.9542 6.79748 46.4645 6.92775C46.9746 7.05815 45.2741 6.62383 46.4645 6.92775ZM38.3758 26.2853H35.2078V16.8133H38.3758V26.2853ZM52.4865 16.625C52.7893 16.625 53.0356 16.8713 53.0356 17.1741C53.0356 17.3525 53.0337 17.8367 53.0312 18.4932C53.0174 22.1177 53.0081 25.5504 53.0349 26.121C53.0446 26.3269 52.9445 26.4642 52.884 26.5277C52.7792 26.6375 52.6381 26.6979 52.4865 26.6979H43.5738C42.5113 26.6979 41.4716 26.3297 40.6457 25.6612L40.251 25.3417V18.0242L44.088 13.6825C45.2797 12.3318 45.9361 10.5959 45.9361 8.79452C45.9361 8.74151 46.0085 8.72776 46.0325 8.76902C46.8629 10.2221 46.9699 12.01 46.3189 13.5518L45.5789 15.3045C45.4568 15.5936 45.4875 15.9246 45.6604 16.1863C45.8336 16.4481 46.1261 16.6059 46.4398 16.6069L52.4865 16.625Z" fill="url(#paint1_linear_3176_4238)"/>
<path d="M9.99525 32.566C9.4773 32.566 9.05762 32.9859 9.05762 33.5037C9.05762 34.0215 9.4773 34.4413 9.99525 34.4413H12.7592L12.2428 37.5641C12.1583 38.075 12.5041 38.5577 13.0149 38.6422C13.0668 38.6508 13.1182 38.6549 13.169 38.6549C13.6195 38.6549 14.017 38.3293 14.093 37.8701L14.6598 34.4414H16.9218L16.4054 37.5643C16.3209 38.0751 16.6667 38.5578 17.1775 38.6423C17.2294 38.6509 17.2808 38.655 17.3316 38.655C17.7821 38.655 18.1796 38.3294 18.2556 37.8702L18.8224 34.4416H22.5846C23.1025 34.4416 23.5222 34.0218 23.5222 33.5039C23.5222 32.9861 23.1025 32.5663 22.5846 32.5663H19.1324L19.5106 30.279H22.5846C23.1025 30.279 23.5222 29.8592 23.5222 29.3413C23.5222 28.8235 23.1025 28.4037 22.5846 28.4037H19.8207L20.337 25.2809C20.4215 24.77 20.0757 24.2874 19.5649 24.2028C19.0534 24.1181 18.5714 24.4641 18.4869 24.975L17.92 28.4036H15.6581L16.1744 25.2807C16.2589 24.7699 15.9131 24.2872 15.4023 24.2027C14.8902 24.118 14.4089 24.464 14.3243 24.9748L13.7574 28.4034H9.99525C9.4773 28.4034 9.05762 28.8233 9.05762 29.3411C9.05762 29.8589 9.4773 30.2787 9.99525 30.2787H13.4474L13.0692 32.566H9.99525ZM15.3482 30.2787H17.6101L17.2319 32.566H14.97L15.3482 30.2787Z" fill="url(#paint2_linear_3176_4238)"/>
<path d="M32.8659 46.7815C32.1088 46.1582 31.1015 45.9122 30.0911 46.1579C28.7963 46.4723 27.4897 47.6828 27.4897 49.6779C27.4897 50.9197 27.9429 51.9976 28.8752 52.9733C29.6367 53.7703 30.7356 54.5281 32.4381 55.4308C32.5755 55.5036 32.7264 55.54 32.8773 55.54C33.0282 55.54 33.1791 55.5036 33.3165 55.4308C36.2867 53.8561 38.2647 52.2753 38.2647 49.6779C38.2647 47.6719 36.9118 46.4738 35.5708 46.1764C34.5634 45.9529 33.5868 46.1902 32.8659 46.7815ZM36.3893 49.6779C36.3893 51.0789 35.46 52.1149 32.8772 53.5367C30.2943 52.1148 29.3649 51.0787 29.3649 49.6779C29.3649 48.6355 29.9685 48.1174 30.5334 47.9802C30.6376 47.9549 30.7491 47.9407 30.8637 47.9407C31.2887 47.9407 31.7559 48.1369 32.0439 48.6954C32.2081 49.0132 32.5399 49.2102 32.8958 49.2028C33.2532 49.1957 33.5756 48.9859 33.7268 48.6619C34.0302 48.0115 34.6683 47.8972 35.1644 48.0073C35.7567 48.1384 36.3893 48.6464 36.3893 49.6779Z" fill="url(#paint3_linear_3176_4238)"/>
</g>
<defs>
<linearGradient id="paint0_linear_3176_4238" x1="1.9668" y1="0" x2="65.8384" y2="59.9463" gradientUnits="userSpaceOnUse">
<stop stop-color="#FDAB76"/>
<stop offset="1" stop-color="#FA541C"/>
</linearGradient>
<linearGradient id="paint1_linear_3176_4238" x1="33.3325" y1="6.81738" x2="55.0877" y2="28.3949" gradientUnits="userSpaceOnUse">
<stop stop-color="#FDAB76"/>
<stop offset="1" stop-color="#FA541C"/>
</linearGradient>
<linearGradient id="paint2_linear_3176_4238" x1="9.05762" y1="24.1899" x2="23.5227" y2="38.6545" gradientUnits="userSpaceOnUse">
<stop stop-color="#FDAB76"/>
<stop offset="1" stop-color="#FA541C"/>
</linearGradient>
<linearGradient id="paint3_linear_3176_4238" x1="27.4897" y1="46.064" x2="36.8881" y2="56.7506" gradientUnits="userSpaceOnUse">
<stop stop-color="#FDAB76"/>
<stop offset="1" stop-color="#FA541C"/>
</linearGradient>
<clipPath id="clip0_3176_4238">
<rect width="64" height="64" fill="white"/>
</clipPath>
</defs>
</svg>
