<svg width="65" height="64" viewBox="0 0 65 64" fill="none" xmlns="http://www.w3.org/2000/svg">
<path d="M25.5847 44.8501C25.3429 44.8501 25.0994 44.7669 24.9007 44.5977L18.0634 38.7758C17.8276 38.5747 17.692 38.2811 17.692 37.9709C17.692 37.6614 17.8282 37.3678 18.0634 37.1667L24.9007 31.3448C25.3447 30.9662 26.0116 31.0199 26.3901 31.4639C26.7681 31.9084 26.715 32.5753 26.2704 32.9532L20.3783 37.9709L26.2704 42.9886C26.715 43.3672 26.7681 44.034 26.3901 44.478C26.1808 44.7239 25.8836 44.8501 25.5847 44.8501Z" fill="url(#paint0_linear_3176_4190)"/>
<path d="M39.0823 44.8501C38.7834 44.8501 38.4862 44.7239 38.2775 44.478C37.8989 44.034 37.9526 43.3672 38.3966 42.9886L44.2887 37.9709L38.3966 32.9532C37.9526 32.5753 37.8989 31.9084 38.2775 31.4639C38.6554 31.0199 39.3229 30.9662 39.7663 31.3448L46.6035 37.1667C46.8394 37.3678 46.975 37.6614 46.975 37.9709C46.975 38.2811 46.8394 38.5747 46.6035 38.7758L39.7663 44.5977C39.5676 44.7669 39.324 44.8501 39.0823 44.8501Z" fill="url(#paint1_linear_3176_4190)"/>
<path d="M29.9131 49.217C29.8406 49.217 29.7674 49.2093 29.6937 49.194C29.123 49.0737 28.7574 48.513 28.8777 47.9422L33.1389 27.7105C33.2592 27.1397 33.8193 26.7742 34.3907 26.8945C34.9614 27.0147 35.327 27.5749 35.2067 28.1462L30.9455 48.3779C30.8406 48.8756 30.4019 49.217 29.9131 49.217Z" fill="url(#paint2_linear_3176_4190)"/>
<path d="M57.2392 60.2392H7.42784C3.51628 60.2392 0.333496 57.057 0.333496 53.1449V10.8678C0.333496 6.95622 3.51628 3.77344 7.42784 3.77344H57.2392C61.1507 3.77344 64.3335 6.95622 64.3335 10.8678V53.1449C64.3335 57.057 61.1507 60.2392 57.2392 60.2392ZM7.42784 5.88665C4.68137 5.88665 2.4467 8.12132 2.4467 10.8678V53.1449C2.4467 55.8914 4.68137 58.126 7.42784 58.126H57.2392C59.9856 58.126 62.2203 55.8914 62.2203 53.1449V10.8678C62.2203 8.12132 59.9856 5.88665 57.2392 5.88665H7.42784Z" fill="url(#paint3_linear_3176_4190)"/>
<path d="M63.2769 20.6927H1.3901C0.806373 20.6927 0.333496 20.2198 0.333496 19.6361C0.333496 19.0529 0.806373 18.5795 1.3901 18.5795H63.2769C63.8606 18.5795 64.3335 19.0529 64.3335 19.6361C64.3335 20.2198 63.8606 20.6927 63.2769 20.6927Z" fill="url(#paint4_linear_3176_4190)"/>
<path d="M18.3866 15.6366C16.5434 15.6366 15.0428 14.1361 15.0428 12.2929C15.0428 10.4491 16.5434 8.94914 18.3866 8.94914C20.2303 8.94914 21.7303 10.4491 21.7303 12.2929C21.7303 14.1361 20.2303 15.6366 18.3866 15.6366ZM18.3866 11.0624C17.7085 11.0624 17.156 11.6142 17.156 12.2929C17.156 12.9716 17.7085 13.5234 18.3866 13.5234C19.0652 13.5234 19.6171 12.9716 19.6171 12.2929C19.6171 11.6142 19.0652 11.0624 18.3866 11.0624Z" fill="url(#paint5_linear_3176_4190)"/>
<path d="M8.11298 15.6042C6.26923 15.6042 4.76923 14.1042 4.76923 12.2605C4.76923 10.4167 6.26923 8.91672 8.11298 8.91672C9.95673 8.91672 11.4567 10.4167 11.4567 12.2605C11.4567 14.1042 9.95673 15.6042 8.11298 15.6042ZM8.11298 11.0299C7.43491 11.0299 6.88244 11.5824 6.88244 12.2605C6.88244 12.9391 7.43491 13.491 8.11298 13.491C8.79163 13.491 9.34352 12.9391 9.34352 12.2605C9.34352 11.5824 8.79163 11.0299 8.11298 11.0299Z" fill="url(#paint6_linear_3176_4190)"/>
<path d="M28.6601 15.6685C26.817 15.6685 25.317 14.1685 25.317 12.3247C25.317 10.4816 26.817 8.98157 28.6601 8.98157C30.5039 8.98157 32.0039 10.4816 32.0039 12.3247C32.0039 14.1685 30.5039 15.6685 28.6601 15.6685ZM28.6601 11.0942C27.9821 11.0942 27.4302 11.6461 27.4302 12.3247C27.4302 13.0034 27.9821 13.5553 28.6601 13.5553C29.3388 13.5553 29.8907 13.0034 29.8907 12.3247C29.8907 11.6461 29.3388 11.0942 28.6601 11.0942Z" fill="url(#paint7_linear_3176_4190)"/>
<defs>
<linearGradient id="paint0_linear_3176_4190" x1="0.333496" y1="3.77344" x2="56.3593" y2="67.2747" gradientUnits="userSpaceOnUse">
<stop stop-color="#FDAB76"/>
<stop offset="1" stop-color="#FA541C"/>
</linearGradient>
<linearGradient id="paint1_linear_3176_4190" x1="0.333496" y1="3.77344" x2="56.3593" y2="67.2747" gradientUnits="userSpaceOnUse">
<stop stop-color="#FDAB76"/>
<stop offset="1" stop-color="#FA541C"/>
</linearGradient>
<linearGradient id="paint2_linear_3176_4190" x1="0.333496" y1="3.77344" x2="56.3593" y2="67.2747" gradientUnits="userSpaceOnUse">
<stop stop-color="#FDAB76"/>
<stop offset="1" stop-color="#FA541C"/>
</linearGradient>
<linearGradient id="paint3_linear_3176_4190" x1="0.333496" y1="3.77344" x2="56.3593" y2="67.2747" gradientUnits="userSpaceOnUse">
<stop stop-color="#FDAB76"/>
<stop offset="1" stop-color="#FA541C"/>
</linearGradient>
<linearGradient id="paint4_linear_3176_4190" x1="0.333496" y1="3.77344" x2="56.3593" y2="67.2747" gradientUnits="userSpaceOnUse">
<stop stop-color="#FDAB76"/>
<stop offset="1" stop-color="#FA541C"/>
</linearGradient>
<linearGradient id="paint5_linear_3176_4190" x1="0.333496" y1="3.77344" x2="56.3593" y2="67.2747" gradientUnits="userSpaceOnUse">
<stop stop-color="#FDAB76"/>
<stop offset="1" stop-color="#FA541C"/>
</linearGradient>
<linearGradient id="paint6_linear_3176_4190" x1="0.333496" y1="3.77344" x2="56.3593" y2="67.2747" gradientUnits="userSpaceOnUse">
<stop stop-color="#FDAB76"/>
<stop offset="1" stop-color="#FA541C"/>
</linearGradient>
<linearGradient id="paint7_linear_3176_4190" x1="0.333496" y1="3.77344" x2="56.3593" y2="67.2747" gradientUnits="userSpaceOnUse">
<stop stop-color="#FDAB76"/>
<stop offset="1" stop-color="#FA541C"/>
</linearGradient>
</defs>
</svg>
